<svg width="50" height="50" viewBox="0 0 50 50" fill="none" xmlns="http://www.w3.org/2000/svg">
<path d="M29.3632 27.5571V6.55944C29.3632 2.93671 26.4265 0 22.8038 0C19.181 0 16.2443 2.93671 16.2443 6.55944V27.5478C10.5748 31.165 8.91088 38.6936 12.5281 44.3632C14.7604 47.8619 18.6209 49.9829 22.7711 49.9907L22.8364 50C29.5617 49.9874 35.0033 44.5253 34.9907 37.8001C34.9829 33.6499 32.8619 29.7894 29.3632 27.5571ZM17.6802 46.7587C12.7434 43.9085 11.052 37.5958 13.9023 32.6591C14.8082 31.09 16.1111 29.7871 17.6802 28.8811C17.9699 28.7139 18.1477 28.4043 18.1464 28.0699V6.55944C18.1464 3.96667 20.2483 1.8648 22.8411 1.8648C25.4338 1.8648 27.5357 3.96667 27.5357 6.55944V28.0699C27.5344 28.4043 27.7123 28.7139 28.0019 28.8811C32.9387 31.7314 34.6301 38.0441 31.7799 42.9808C28.9296 47.9176 22.6169 49.6091 17.6802 46.7587Z" fill="#F0811F"/>
<path d="M23.767 31.1189V16.9744C23.767 16.4595 23.3495 16.042 22.8346 16.042C22.3197 16.042 21.9022 16.4595 21.9022 16.9744V31.1189C18.3799 31.624 15.934 34.8888 16.4391 38.4111C16.8951 41.5903 19.6228 43.9483 22.8346 43.9394C26.3928 43.9492 29.2854 41.0726 29.2953 37.5144C29.3041 34.3026 26.9462 31.5749 23.767 31.1189ZM22.8346 42.0653C20.3061 42.0653 18.2565 40.0156 18.2565 37.4872C18.2616 34.961 20.3082 32.9142 22.8346 32.9091C25.363 32.9091 27.4127 34.9588 27.4127 37.4872C27.4127 40.0156 25.3629 42.0653 22.8346 42.0653Z" fill="#F0811F"/>
<path d="M38.4533 6.41016H32.6258C32.1108 6.41016 31.6934 6.82764 31.6934 7.34256C31.6934 7.85748 32.1108 8.27496 32.6258 8.27496H38.4533C38.9682 8.27496 39.3857 7.85748 39.3857 7.34256C39.3857 6.82764 38.9682 6.41016 38.4533 6.41016Z" fill="#F0811F"/>
<path d="M37.2137 11.0723H33.7918C33.2769 11.0723 32.8594 11.4897 32.8594 12.0047C32.8594 12.5196 33.2769 12.9371 33.7918 12.9371H37.2137C37.7286 12.9371 38.1461 12.5196 38.1461 12.0047C38.1461 11.4897 37.7286 11.0723 37.2137 11.0723Z" fill="#F0811F"/>
<path d="M38.4533 15.7344H32.6258C32.1108 15.7344 31.6934 16.1519 31.6934 16.6668C31.6934 17.1817 32.1108 17.5992 32.6258 17.5992H38.4533C38.9682 17.5992 39.3857 17.1817 39.3857 16.6668C39.3857 16.1519 38.9682 15.7344 38.4533 15.7344Z" fill="#F0811F"/>
<path d="M37.2137 20.3965H33.7918C33.2769 20.3965 32.8594 20.814 32.8594 21.3289C32.8594 21.8438 33.2769 22.2613 33.7918 22.2613H37.2137C37.7286 22.2613 38.1461 21.8438 38.1461 21.3289C38.1461 20.814 37.7286 20.3965 37.2137 20.3965Z" fill="#F0811F"/>
<path d="M38.4533 25.0581H32.6258C32.1108 25.0581 31.6934 25.4756 31.6934 25.9905C31.6934 26.5054 32.1108 26.9229 32.6258 26.9229H38.4533C38.9682 26.9229 39.3857 26.5054 39.3857 25.9905C39.3857 25.4756 38.9682 25.0581 38.4533 25.0581Z" fill="#F0811F"/>
</svg>
