<svg width="50" height="50" viewBox="0 0 50 50" fill="none" xmlns="http://www.w3.org/2000/svg">
<path d="M44.2215 38.7198H40.9793C40.9991 38.6651 41.0158 38.6093 41.0293 38.5526L42.0875 33.039C42.1066 32.9401 42.1035 32.8382 42.0786 32.7406C42.0537 32.643 42.0075 32.5521 41.9433 32.4744C41.8791 32.3968 41.7986 32.3343 41.7074 32.2914C41.6163 32.2486 41.5168 32.2264 41.416 32.2265H40.2738C40.3129 32.1874 40.352 32.1515 40.3879 32.1093L40.4352 32.0554C42.1047 30.1413 42.2172 27.0815 42.2211 26.9522C42.2243 26.8395 42.1994 26.7277 42.1489 26.6268C42.0983 26.526 42.0236 26.4393 41.9313 26.3743C41.839 26.3094 41.7321 26.2684 41.6201 26.2548C41.5081 26.2413 41.3945 26.2557 41.2895 26.2968C41.0609 26.387 40.843 26.4839 40.6344 26.5835V5.77881C40.6343 5.59754 40.5622 5.42373 40.434 5.29555C40.3059 5.16737 40.1321 5.09532 39.9508 5.09521H10.0512C9.8699 5.09532 9.69609 5.16737 9.56791 5.29555C9.43974 5.42373 9.36768 5.59754 9.36758 5.77881V38.7198H5.7793C5.598 38.7198 5.42412 38.7918 5.29592 38.92C5.16772 39.0482 5.0957 39.2221 5.0957 39.4034V44.221C5.09581 44.4023 5.16786 44.5761 5.29604 44.7043C5.42421 44.8324 5.59803 44.9045 5.7793 44.9046H44.2215C44.4028 44.9045 44.5766 44.8324 44.7047 44.7043C44.8329 44.5761 44.905 44.4023 44.9051 44.221V39.4034C44.9051 39.2221 44.8331 39.0482 44.7049 38.92C44.5767 38.7918 44.4028 38.7198 44.2215 38.7198ZM39.6879 38.2952C39.6249 38.4359 39.5189 38.5528 39.385 38.6292C39.2511 38.7055 39.0965 38.7373 38.9434 38.7198H35.2371C35.084 38.7373 34.9293 38.7055 34.7955 38.6292C34.6616 38.5528 34.5555 38.4359 34.4926 38.2952L34.0793 36.1413L33.5898 33.5937H40.5887L39.6879 38.2952ZM13.8598 35.5948V9.5874H24.3168V35.5948H13.8598ZM25.684 9.5874H36.141V25.6663C35.7698 26.2784 35.4905 26.9418 35.3121 27.6351C34.5638 27.0898 33.7502 26.6402 32.8902 26.2968C32.785 26.2551 32.671 26.2402 32.5585 26.2535C32.4461 26.2668 32.3387 26.3078 32.2461 26.3729C32.1534 26.438 32.0784 26.5251 32.0277 26.6263C31.9771 26.7276 31.9524 26.8399 31.9559 26.953C31.9598 27.0823 32.073 30.1413 33.7414 32.0558L33.7906 32.1116C33.8266 32.1507 33.8664 32.1874 33.9035 32.2261H32.7629C32.6622 32.226 32.5627 32.2482 32.4715 32.291C32.3804 32.3339 32.2998 32.3964 32.2356 32.474C32.1715 32.5517 32.1253 32.6426 32.1003 32.7402C32.0754 32.8378 32.0723 32.9397 32.0914 33.0386L32.5816 35.5944H25.684V9.5874ZM39.4082 31.1558L39.3633 31.2069C39.0775 31.5276 38.727 31.7843 38.335 31.96C37.943 32.1357 37.5183 32.2266 37.0887 32.2266C36.6591 32.2266 36.2343 32.1357 35.8423 31.96C35.4503 31.7843 35.0999 31.5276 34.8141 31.2069L34.7727 31.1601C34.0802 30.2619 33.6297 29.2011 33.4641 28.0792C34.1287 28.4404 34.7462 28.8824 35.3023 29.3952C35.3945 29.4873 35.511 29.5512 35.6381 29.5793C35.7653 29.6074 35.8979 29.5986 36.0202 29.5539C36.1426 29.5092 36.2496 29.4305 36.3287 29.327C36.4078 29.2235 36.4557 29.0996 36.4668 28.9698C36.5336 28.2035 36.7457 27.4568 37.0918 26.7698C37.4364 27.4571 37.647 28.2037 37.7121 28.9698C37.7236 29.0992 37.7718 29.2227 37.8509 29.3257C37.93 29.4287 38.0368 29.5071 38.1589 29.5517C38.2809 29.5962 38.4131 29.6051 38.54 29.5772C38.6669 29.5494 38.7832 29.486 38.8754 29.3944C39.4323 28.8808 40.0507 28.4381 40.7164 28.0765C40.552 29.1982 40.1015 30.2587 39.4082 31.1558ZM10.7348 6.4624H39.266V27.3585C39.123 27.4534 38.9883 27.5464 38.8664 27.6351C38.6346 26.6931 38.2054 25.8111 37.607 25.0476C37.5775 25.014 37.5443 24.9837 37.5082 24.9573V8.90264C37.5081 8.72137 37.436 8.54755 37.3079 8.41938C37.1797 8.2912 37.0059 8.21915 36.8246 8.21904H13.1762C12.9949 8.21915 12.8211 8.2912 12.6929 8.41938C12.5647 8.54755 12.4927 8.72137 12.4926 8.90264V36.2784C12.4927 36.4597 12.5647 36.6335 12.6929 36.7617C12.8211 36.8899 12.9949 36.9619 13.1762 36.962H32.8441L33.1496 38.553C33.1632 38.6095 33.1799 38.6652 33.1996 38.7198H10.7348V6.4624ZM43.5379 43.5374H6.46289V40.087H43.5379V43.5374Z" fill="#F0811F"/>
<path d="M22.0549 14.8461C21.9266 14.718 21.7528 14.646 21.5715 14.646C21.3902 14.646 21.2163 14.718 21.0881 14.8461L16.0975 19.8371C16.0322 19.9001 15.9801 19.9756 15.9442 20.059C15.9084 20.1424 15.8895 20.232 15.8887 20.3228C15.8879 20.4136 15.9052 20.5036 15.9395 20.5876C15.9739 20.6716 16.0246 20.748 16.0888 20.8122C16.153 20.8764 16.2293 20.9271 16.3133 20.9615C16.3973 20.9959 16.4873 21.0132 16.5781 21.0125C16.6688 21.0117 16.7585 20.9929 16.8419 20.957C16.9254 20.9212 17.0008 20.8692 17.0639 20.8039L22.0549 15.8129C22.1184 15.7494 22.1688 15.6741 22.2032 15.5911C22.2376 15.5082 22.2553 15.4193 22.2553 15.3295C22.2553 15.2397 22.2376 15.1508 22.2032 15.0678C22.1688 14.9849 22.1184 14.9095 22.0549 14.8461Z" fill="#F0811F"/>
<path d="M21.0866 18.6289L19.1983 20.5176C19.0701 20.6458 18.998 20.8197 18.998 21.001C18.998 21.1823 19.0701 21.3562 19.1983 21.4844C19.3265 21.6126 19.5004 21.6846 19.6817 21.6846C19.863 21.6846 20.0369 21.6126 20.1651 21.4844L22.0534 19.5957C22.1816 19.4675 22.2536 19.2936 22.2536 19.1123C22.2536 18.931 22.1816 18.7571 22.0534 18.6289C21.9251 18.5007 21.7513 18.4287 21.57 18.4287C21.3886 18.4287 21.2148 18.5007 21.0866 18.6289Z" fill="#F0811F"/>
<path d="M33.6584 14.8461C33.5301 14.718 33.3563 14.646 33.175 14.646C32.9937 14.646 32.8199 14.718 32.6916 14.8461L27.701 19.8371C27.6357 19.9001 27.5836 19.9756 27.5477 20.059C27.5119 20.1424 27.493 20.232 27.4922 20.3228C27.4914 20.4136 27.5087 20.5036 27.543 20.5876C27.5774 20.6716 27.6281 20.748 27.6923 20.8122C27.7565 20.8764 27.8328 20.9271 27.9168 20.9615C28.0008 20.9959 28.0908 21.0132 28.1816 21.0125C28.2723 21.0117 28.3621 20.9929 28.4455 20.957C28.5289 20.9212 28.6043 20.8692 28.6674 20.8039L33.6584 15.8129C33.7219 15.7494 33.7723 15.6741 33.8067 15.5911C33.8411 15.5082 33.8588 15.4193 33.8588 15.3295C33.8588 15.2397 33.8411 15.1508 33.8067 15.0678C33.7723 14.9849 33.7219 14.9095 33.6584 14.8461Z" fill="#F0811F"/>
<path d="M33.6573 18.6288C33.529 18.5007 33.3551 18.4287 33.1739 18.4287C32.9926 18.4287 32.8187 18.5007 32.6905 18.6288L30.8018 20.5175C30.6736 20.6457 30.6016 20.8196 30.6016 21.0009C30.6016 21.1822 30.6736 21.3561 30.8018 21.4843C30.93 21.6125 31.1039 21.6845 31.2852 21.6845C31.4665 21.6845 31.6404 21.6125 31.7686 21.4843L33.6573 19.5956C33.7208 19.5321 33.7712 19.4568 33.8056 19.3738C33.84 19.2909 33.8577 19.202 33.8577 19.1122C33.8577 19.0224 33.84 18.9335 33.8056 18.8505C33.7712 18.7676 33.7208 18.6922 33.6573 18.6288Z" fill="#F0811F"/>
</svg>
