<svg width="50" height="50" viewBox="0 0 50 50" fill="none" xmlns="http://www.w3.org/2000/svg">
<path d="M29.9707 19.2625V7.541C29.9703 7.24669 29.815 6.97474 29.5621 6.82474C29.3089 6.67514 28.9955 6.67027 28.7378 6.81173L12.2748 15.8662H2.49756C1.11829 15.8662 0 16.9841 0 18.3637V31.684C0 33.0633 1.11829 34.1816 2.49756 34.1816H12.2748L28.7378 43.236C28.9955 43.3775 29.3085 43.373 29.5617 43.2234C29.8154 43.0734 29.9707 42.8011 29.9707 42.5068V30.7849C32.8361 30.3731 34.9634 27.9186 34.9634 25.0239C34.9634 22.1292 32.8361 19.6743 29.9707 19.2625ZM11.6553 32.5166H4.99511V17.5312H11.6553V32.5166ZM1.66504 31.684V18.3637C1.66504 17.904 2.0378 17.5312 2.49756 17.5312H3.33008V32.5166H2.49756C2.0378 32.5166 1.66504 32.1438 1.66504 31.684ZM28.3056 41.0987L13.3203 32.8568V17.1906L28.3056 8.94872V41.0987ZM29.9707 29.1032V20.9442C31.9109 21.3385 33.3048 23.0442 33.3048 25.0239C33.3048 27.0036 31.9109 28.7092 29.9707 29.1032Z" fill="#F0811F"/>
<path d="M44.4673 25.0242L49.7652 19.7258C50.0807 19.3994 50.0762 18.8799 49.7551 18.5588C49.4339 18.2376 48.9148 18.2332 48.588 18.5486L43.29 23.847L37.9921 18.5486C37.6653 18.2332 37.1462 18.2376 36.825 18.5588C36.5039 18.8799 36.4994 19.3994 36.8149 19.7258L42.1128 25.0242L36.8149 30.3222C36.5982 30.5311 36.5116 30.8409 36.5876 31.1319C36.6641 31.423 36.8913 31.6502 37.1823 31.7262C37.4734 31.8026 37.7827 31.7157 37.9921 31.4994L43.29 26.2014L48.588 31.4994C48.9148 31.8148 49.4339 31.8104 49.7551 31.4892C50.0762 31.1681 50.0807 30.649 49.7652 30.3222L44.4673 25.0242Z" fill="#F0811F"/>
</svg>
