<svg width="50" height="50" viewBox="0 0 50 50" fill="none" xmlns="http://www.w3.org/2000/svg">
<g clip-path="url(#clip0)">
<path d="M0.157276 4.58651L3.49188 10.4217C3.60436 10.6189 3.79262 10.7616 4.01278 10.8168L7.12379 11.5945L17.7939 22.2646L18.9729 21.086L8.13576 10.2492C8.02911 10.1422 7.89537 10.0664 7.74895 10.0298L4.75967 9.27977L1.9206 4.30874L4.35468 1.87466L9.32777 4.71647L10.0781 7.70575C10.1144 7.85252 10.1906 7.9866 10.2972 8.09325L21.1343 18.9304L22.313 17.7514L11.6429 7.08128L10.8651 3.97198C10.8099 3.75148 10.6672 3.56288 10.4701 3.45005L4.6345 0.115795C4.30907 -0.0693848 3.89961 -0.0145168 3.63419 0.249878L0.299933 3.58448C0.0317655 3.84819 -0.0265317 4.25833 0.157276 4.58651Z" fill="#F0811F"/>
<path d="M34.8151 16.4291L16.4759 34.7687L15.2969 33.5897L33.6365 15.2505L34.8151 16.4291Z" fill="#F0811F"/>
<path d="M13.2673 35.4175C13.1165 35.1665 12.8455 35.0132 12.5527 35.0132H7.55114C7.25862 35.0132 6.98737 35.1665 6.83683 35.4175L4.33588 39.5854C4.1771 39.8495 4.1771 40.1797 4.33588 40.4441L6.83683 44.612C6.98737 44.8627 7.25862 45.0163 7.55114 45.0163H12.5527C12.8455 45.0163 13.1165 44.8627 13.2673 44.612L15.7679 40.4441C15.9267 40.1797 15.9267 39.8495 15.7679 39.5854L13.2673 35.4175ZM12.0812 43.349H8.023L6.02238 40.0148L8.023 36.6801H12.0812L14.0818 40.0148L12.0812 43.349Z" fill="#F0811F"/>
<path d="M40.062 20.0083C45.5676 20.0268 50.0462 15.5784 50.0648 10.0727C50.0675 9.23459 49.9646 8.39991 49.7585 7.58753C49.6474 7.1407 49.1951 6.86876 48.7483 6.97986C48.6015 7.01656 48.4678 7.09234 48.3608 7.19899L43.1716 12.3847L39.0545 11.0127L37.6814 6.89653L42.8705 1.70637C43.196 1.38059 43.1956 0.852834 42.8699 0.527399C42.7625 0.420063 42.6274 0.343934 42.4796 0.307584C37.1403 -1.04457 31.7162 2.1875 30.3641 7.52649C30.1587 8.33647 30.0561 9.16909 30.0589 10.0048C30.0609 10.6612 30.1285 11.3155 30.2615 11.9581L12.0052 30.214C11.3626 30.0813 10.7083 30.0138 10.0523 30.0114C4.52743 30.0114 0.0488281 34.4899 0.0488281 40.0148C0.0488281 45.5393 4.52743 50.0179 10.0523 50.0179C15.5768 50.0179 20.0554 45.5393 20.0554 40.0148C20.0533 39.3584 19.9854 38.7041 19.8527 38.0615L24.2233 33.6909L26.1348 35.6024C26.4606 35.9278 26.988 35.9278 27.3138 35.6024L27.7304 35.1854C28.096 34.8222 28.6868 34.8222 29.0524 35.1854C29.4176 35.5496 29.4183 36.1408 29.0541 36.506C29.0538 36.5063 29.0531 36.507 29.0524 36.5077L28.6357 36.9244C28.3103 37.2498 28.3103 37.7776 28.6357 38.103L38.5799 48.0471C41.1953 50.6866 45.4552 50.7058 48.0947 48.0903C50.7338 45.4748 50.753 41.2147 48.1375 38.5756C48.1235 38.5611 48.1091 38.5467 48.0947 38.5323L38.1505 28.5886C37.8251 28.2631 37.2973 28.2631 36.9719 28.5886L36.5552 29.0052C36.1893 29.3687 35.5988 29.3687 35.2329 29.0052C34.868 28.641 34.867 28.0498 35.2312 27.685C35.2319 27.6843 35.2326 27.6839 35.2329 27.6832L35.6499 27.2662C35.9753 26.9408 35.9753 26.413 35.6499 26.0876L33.7384 24.1762L38.109 19.8056C38.7517 19.9383 39.406 20.0062 40.062 20.0083ZM43.3373 48.351C42.7317 48.3499 42.1312 48.2405 41.5643 48.0276L48.0748 41.5168C49.0572 44.1302 47.7353 47.0451 45.1218 48.0276C44.5516 48.2419 43.947 48.3516 43.3373 48.351ZM33.8935 26.6853C32.9703 27.7865 33.115 29.4277 34.2161 30.3505C35.1839 31.1615 36.5943 31.1608 37.561 30.3481L46.916 39.7113C47.0175 39.8132 47.1125 39.9205 47.2044 40.0296L40.0771 47.1569C39.9677 47.0653 39.8603 46.9703 39.7585 46.8685L30.3963 37.5056C31.3195 36.4045 31.1747 34.7633 30.0736 33.8405C29.1059 33.0291 27.6951 33.0301 26.7284 33.8425L25.3947 32.5089L32.5595 25.3548L33.8935 26.6853ZM37.2596 18.3012L18.349 37.208C18.1415 37.4151 18.0582 37.7158 18.1289 38.0001C19.2725 42.4914 16.5586 47.0595 12.067 48.2028C7.57569 49.3465 3.00758 46.6326 1.86393 42.1409C0.720618 37.6497 3.43452 33.0816 7.92615 31.9379C9.28482 31.5922 10.7083 31.5922 12.067 31.9379C12.3513 32.0075 12.6513 31.9242 12.8591 31.7181L31.7653 12.811C31.9724 12.6038 32.0557 12.3031 31.9844 12.0191C30.8486 7.58033 33.5262 3.06127 37.965 1.92516C38.8038 1.71083 39.6714 1.62853 40.5356 1.68237L36.1382 6.0814C35.915 6.3043 35.8368 6.63454 35.9366 6.93391L37.6036 11.9358C37.6869 12.1844 37.8824 12.3799 38.1313 12.4625L43.1332 14.1298C43.4322 14.2296 43.7625 14.1518 43.9857 13.9289L48.3831 9.53157C48.393 9.69068 48.3981 9.84808 48.3981 10.0048C48.4215 14.5852 44.7275 18.3173 40.147 18.341C39.4389 18.3444 38.7331 18.2573 38.0473 18.0817C37.763 18.0107 37.4623 18.0937 37.2551 18.3008H37.2596V18.3012Z" fill="#F0811F"/>
<path d="M43.1515 41.9257L41.9725 43.1046L33.6367 34.7688L34.8153 33.5898L43.1515 41.9257Z" fill="#F0811F"/>
</g>
<defs>
<clipPath id="clip0">
<rect width="50" height="50" fill="white"/>
</clipPath>
</defs>
</svg>
