<svg width="60" height="60" viewBox="0 0 60 60" fill="none" xmlns="http://www.w3.org/2000/svg">
<path d="M8.00001 11.5376H14.0001C14.6 11.5376 15 11.9376 15 12.5375C15 13.1375 14.6 13.5375 14.0001 13.5375H8.00001C7.40002 13.5375 7.00007 13.1375 7.00007 12.5375C7.00007 11.9376 7.40002 11.5376 8.00001 11.5376Z" fill="#F0811F"/>
<path d="M8.00001 15.5376H14.0001C14.6 15.5376 15 15.9376 15 16.5375C15 17.1375 14.6 17.5375 14.0001 17.5375H8.00001C7.40002 17.5375 7.00007 17.1375 7.00007 16.5375C7.00007 15.9376 7.40002 15.5376 8.00001 15.5376Z" fill="#F0811F"/>
<path d="M6.20007 6.63768C11.8 5.33773 19.9 5.03762 25.5 6.13764L26.4 6.33768C27.6999 6.53772 29 6.83771 30.2999 7.03763L32.1821 7.33775C32.1881 7.33775 32.1939 7.33763 32.1999 7.33763L37.1998 8.13766C39.0576 8.39095 40.4874 9.78525 40.8874 11.5377H44.9999C47.1999 11.5377 48.9999 13.3377 48.9999 15.5377H59.0001C59.6 15.5377 60 15.9377 60 16.5377C60 17.1377 59.6 17.5376 59.0001 17.5376H49.0001C49.0001 19.7377 47.2001 21.5376 45.0001 21.5376H40.8876C40.6943 22.3842 40.2608 23.1471 39.6547 23.7383C38.9902 24.394 38.1132 24.8614 37.1001 25.0376L27.2001 26.5376C25.3761 27.0105 23.095 27.3002 20.6666 27.4389L19.0002 34.9376C18.9002 35.4376 18.5001 35.7376 18.0002 35.7376H16.0002V42.1376L21.529 47.6665C21.7698 47.8004 21.9321 48.0319 21.9829 48.3302C22.0019 48.4153 22.008 48.5029 22.0002 48.5922V52.5375C22.0002 53.6375 21.1003 54.5375 20.0002 54.5375H5.00021C3.90018 54.5375 3.0002 53.6375 3.0002 52.5375V48.5375C3.0002 48.2695 3.08038 48.0419 3.22215 47.8715L5.00021 42.5375V34.5374L5.54706 26.2442C2.29 25.1294 0.000236511 22.0097 0.000236511 18.5374V14.5374C0 10.8376 2.50005 7.63762 6.20007 6.63768ZM36.8 10.1377L33 9.53184V23.6226L36.9 23.0376C38.0999 22.8376 38.9999 21.7377 38.9999 20.5376V12.5375C39.0001 11.3377 38.1001 10.2376 36.8 10.1377ZM47 17.5376V15.5376C47 14.4376 46.1 13.5376 45 13.5376H40.9999V19.5376H45C46.1 19.5376 47 18.6376 47 17.5376ZM7.0001 34.5376V41.5376H14.0001V34.7378V34.7377V27.4545C11.6851 27.3321 9.43962 27.0766 7.49561 26.709L7.0001 34.5376ZM17.2001 33.7376L18.5 27.7376C17.7 27.7376 16.8 27.7376 16 27.7376V33.7376H17.2001ZM14.6001 43.5376H6.70011L5.40016 47.5377H18.6L14.6001 43.5376ZM5.00009 52.5375H20V49.5376H4.99997V52.5375H5.00009ZM2.10009 18.5376C2.10009 21.3376 4.00014 23.7376 6.80006 24.4375C12.4 25.8375 21.4 25.9375 26.9 24.5375L31 23.9225V9.21302L29.9 9.03764C28.6 8.83761 27.2 8.63769 25.9 8.33769L25 8.13766C22.7999 7.7377 20.1999 7.53766 17.4 7.53766C13.6 7.53766 9.59999 7.83766 6.69999 8.63769C4.00002 9.33764 2.09997 11.7377 2.09997 14.5376V18.5376H2.10009Z" fill="#F0811F"/>
</svg>
