<svg width="30" height="30" viewBox="0 0 30 30" fill="none" xmlns="http://www.w3.org/2000/svg">
<circle cx="15" cy="15" r="15" fill="#E74B5E"/>
<path d="M19.1904 5H10.8097C7.60621 5 5 7.60621 5 10.8097V19.1903C5 22.3938 7.60621 25 10.8097 25H19.1903C22.3938 25 25 22.3938 25 19.1904V10.8097C25 7.60621 22.3938 5 19.1904 5ZM23.4375 19.1903C23.4375 21.5322 21.5322 23.4375 19.1904 23.4375H10.8097C8.46777 23.4375 6.5625 21.5322 6.5625 19.1904V10.8097C6.5625 8.46777 8.46777 6.5625 10.8097 6.5625H19.1903C21.5322 6.5625 23.4375 8.46777 23.4375 10.8097V19.1903Z" fill="white"/>
<path d="M15 9.60938C12.0276 9.60938 9.60938 12.0276 9.60938 15C9.60938 17.9724 12.0276 20.3906 15 20.3906C17.9724 20.3906 20.3906 17.9724 20.3906 15C20.3906 12.0276 17.9724 9.60938 15 9.60938ZM15 18.8281C12.8892 18.8281 11.1719 17.1108 11.1719 15C11.1719 12.8892 12.8892 11.1719 15 11.1719C17.1108 11.1719 18.8281 12.8892 18.8281 15C18.8281 17.1108 17.1108 18.8281 15 18.8281Z" fill="white"/>
<path d="M20.4687 10.3109C20.9002 10.3109 21.25 9.9613 21.25 9.52999C21.25 9.09867 20.9002 8.74902 20.4687 8.74902C20.0373 8.74902 19.6875 9.09867 19.6875 9.52999C19.6875 9.9613 20.0373 10.3109 20.4687 10.3109Z" fill="white"/>
</svg>
