<svg width="200" height="142" viewBox="0 0 200 142" fill="none" xmlns="http://www.w3.org/2000/svg">
<path d="M5.45576 116.526V93.8118H16.2342V88.7642H0V116.526H5.45576Z" fill="#35393F"/>
<path d="M35.1295 107.892C35.2626 107.228 35.2626 106.697 35.2626 106.165C35.2626 99.9221 31.5367 95.4058 25.0164 95.4058C19.0284 95.4058 14.9033 100.321 14.9033 106.298C14.9033 112.276 19.4276 117.19 25.5487 117.19C28.7423 117.19 31.2706 116.128 33.1335 114.268L30.7383 110.814C29.5407 112.01 27.8108 112.674 25.8148 112.674C22.8873 112.674 20.4921 110.947 19.8268 107.892H35.1295ZM25.1495 99.7892C27.9439 99.7892 29.6738 101.383 30.3391 104.04H19.8268C20.4921 101.25 22.6212 99.7892 25.1495 99.7892Z" fill="#35393F"/>
<path d="M48.9686 117.057C55.2228 117.057 60.0132 112.275 60.0132 106.165C60.0132 100.054 55.2228 95.2725 49.1017 95.2725C42.9806 95.2725 38.1902 100.054 38.1902 106.165C38.0571 112.275 42.8476 117.057 48.9686 117.057ZM49.1017 112.408C45.775 112.408 43.1137 109.751 43.1137 106.298C43.1137 102.844 45.775 100.187 49.1017 100.187C52.4284 100.187 55.0897 102.844 55.0897 106.298C54.9567 109.751 52.2953 112.408 49.1017 112.408Z" fill="#35393F"/>
<path d="M66.9325 116.527L68.5293 103.376L73.1867 116.527H77.1787L81.8361 103.376L83.4329 116.659H88.4894L85.8281 95.9375H80.1062L75.3158 109.752L70.2592 95.8047H64.5373L61.876 116.527H66.9325Z" fill="#35393F"/>
<path d="M110.712 107.892C110.845 107.228 110.845 106.697 110.845 106.165C110.845 99.9221 107.119 95.4058 100.598 95.4058C94.6104 95.4058 90.4854 100.321 90.4854 106.298C90.4854 112.276 95.0096 117.19 101.131 117.19C104.324 117.19 106.853 116.128 108.716 114.268L106.32 110.814C105.123 112.01 103.393 112.674 101.397 112.674C98.4694 112.674 96.0742 110.947 95.4088 107.892H110.712ZM100.732 99.7892C103.526 99.7892 105.256 101.383 105.921 104.04H95.4088C96.0742 101.25 98.0702 99.7892 100.732 99.7892Z" fill="#35393F"/>
<path d="M122.954 116.527V100.454H129.075V95.8047H111.776V100.454H117.897V116.527H122.954Z" fill="#35393F"/>
<path d="M143.314 95.4058C140.519 95.4058 138.39 96.6013 136.793 98.3281L136.394 95.8043H132.003V123.566H137.059V114.401C138.523 115.995 140.519 117.058 143.181 117.058C148.902 117.058 153.56 112.276 153.56 106.165C153.693 100.188 149.036 95.4058 143.314 95.4058ZM142.914 112.276C139.588 112.276 136.926 109.752 136.926 106.298C136.926 102.844 139.588 100.188 142.914 100.188C146.241 100.188 148.769 102.844 148.769 106.298C148.769 109.752 146.241 112.276 142.914 112.276Z" fill="#35393F"/>
<path d="M177.645 95.8047H172.589L163.008 108.291V95.8047H157.951V116.527H162.609L172.589 103.243V116.527H177.645V95.8047Z" fill="#35393F"/>
<path d="M190.419 95.8047C185.895 95.8047 182.701 98.727 182.701 102.712C182.701 105.634 184.165 107.361 186.161 108.424L181.77 116.527H187.491L190.951 109.619C191.217 109.619 191.483 109.619 191.883 109.619H194.943V116.527H200V95.8047H190.419ZM190.685 105.634C188.689 105.634 187.491 104.306 187.491 102.845C187.491 101.118 188.689 100.055 190.552 100.055H194.81V105.634H190.685Z" fill="#35393F"/>
<path d="M4.12509 139.639C6.38723 139.639 8.25017 137.779 8.25017 135.388C8.25017 132.997 6.38723 131.137 4.12509 131.137C1.86295 131.137 0 132.997 0 135.388C0 137.779 1.72988 139.639 4.12509 139.639ZM4.12509 138.177C2.79442 138.177 1.59681 136.982 1.59681 135.388C1.59681 133.794 2.79442 132.598 4.12509 132.598C5.45576 132.598 6.65336 133.794 6.65336 135.388C6.65336 136.849 5.45576 138.177 4.12509 138.177Z" fill="#F0811F"/>
<path d="M10.912 139.506V137.115H11.8434L13.4403 139.506H15.1701L13.0411 136.318L14.904 133.396H13.1741L11.8434 135.787H10.912V133.396H9.44824V139.639H10.912V139.506Z" fill="#F0811F"/>
<path d="M17.4315 139.506V136.982H20.2259V139.506H21.6897V133.263H20.2259V135.654H17.4315V133.263H15.9678V139.506H17.4315Z" fill="#F0811F"/>
<path d="M27.6784 134.06C27.2792 133.528 26.6138 133.13 25.8154 133.13C24.2186 133.13 22.7549 134.591 22.7549 136.318C22.7549 138.178 24.0855 139.506 25.8154 139.506C26.6138 139.506 27.2792 139.107 27.6784 138.576L27.8114 139.24H29.1421V132.997H27.9445L27.6784 134.06ZM25.9485 138.178C25.017 138.178 24.2186 137.381 24.2186 136.318C24.2186 135.255 25.017 134.458 25.9485 134.458C26.88 134.458 27.6784 135.255 27.6784 136.318C27.6784 137.513 26.88 138.178 25.9485 138.178Z" fill="#F0811F"/>
<path d="M38.9885 133.263H37.5248L34.7303 136.982V133.263H33.2666V139.506H34.5973L37.5248 135.521V139.506H38.9885V133.263Z" fill="#F0811F"/>
<path d="M43.9124 140.835V139.507H48.1706V140.835H49.5013V138.046H48.8359V133.131H44.3116L44.1786 134.991C44.0455 136.585 43.6463 137.382 43.2471 138.046H42.7148V140.835H43.9124ZM44.5778 138.179C44.977 137.514 45.2431 136.983 45.3762 135.655L45.5092 134.592H47.3722V138.046H44.5778V138.179Z" fill="#F0811F"/>
<path d="M53.2266 139.506C54.2911 139.506 55.3556 138.975 55.3556 137.647C55.3556 136.982 54.8234 136.318 54.158 136.186C54.6903 136.053 54.9564 135.521 54.9564 134.99C54.9564 133.927 54.158 133.263 52.8274 133.263H50.166V139.506H53.2266ZM51.6298 134.459H52.9604C53.3596 134.459 53.7588 134.724 53.7588 135.123C53.7588 135.521 53.3596 135.787 52.9604 135.787H51.6298V134.459ZM51.6298 136.85H53.0935C53.4927 136.85 54.025 137.115 54.025 137.647C54.025 138.178 53.6258 138.444 53.2266 138.444H51.6298V136.85Z" fill="#F0811F"/>
<path d="M62.0093 136.982C62.0093 136.717 62.0093 136.584 62.0093 136.451C62.0093 134.592 60.9447 133.263 59.0818 133.263C57.3519 133.263 56.1543 134.724 56.1543 136.451C56.1543 138.178 57.485 139.639 59.2148 139.639C60.1463 139.639 60.8116 139.373 61.477 138.842L60.8116 137.78C60.4124 138.178 60.0133 138.311 59.3479 138.311C58.5495 138.311 57.7511 137.779 57.618 136.85H62.0093V136.982ZM59.2148 134.459C60.0133 134.459 60.5455 134.99 60.6786 135.787H57.618C57.8842 134.99 58.4164 134.459 59.2148 134.459Z" fill="#F0811F"/>
<path d="M66.5334 133.131C65.735 133.131 65.0697 133.529 64.6705 134.061L64.5374 133.264H63.3398V141.499H64.8036V138.71C65.2028 139.241 65.8681 139.507 66.5334 139.507C68.1303 139.507 69.594 138.046 69.594 136.319C69.4609 134.592 68.1303 133.131 66.5334 133.131ZM66.4004 138.179C65.4689 138.179 64.6705 137.382 64.6705 136.319C64.6705 135.256 65.4689 134.459 66.4004 134.459C67.3319 134.459 68.1303 135.256 68.1303 136.319C67.9972 137.514 67.3319 138.179 66.4004 138.179Z" fill="#F0811F"/>
<path d="M76.3801 133.263H74.9163L72.1219 136.982V133.263H70.6582V139.506H71.9889L74.9163 135.521V139.506H76.3801V133.263Z" fill="#F0811F"/>
<path d="M83.5664 139.506C84.6309 139.506 85.6955 138.975 85.6955 137.647C85.6955 136.982 85.1632 136.318 84.4979 136.186C85.0301 136.053 85.2963 135.521 85.2963 134.99C85.2963 133.927 84.4979 133.263 83.1672 133.263H80.5059V139.506H83.5664ZM81.9696 134.459H83.3003C83.6995 134.459 84.0987 134.724 84.0987 135.123C84.0987 135.521 83.6995 135.787 83.3003 135.787H81.9696V134.459ZM81.9696 136.85H83.4333C83.8325 136.85 84.3648 137.115 84.3648 137.647C84.3648 138.178 83.9656 138.444 83.5664 138.444H82.1027V136.85H81.9696Z" fill="#F0811F"/>
<path d="M91.4171 139.508V135.921H95.143V139.508H96.7398V131.272H95.143V134.46H91.4171V131.272H89.8203V139.508H91.4171Z" fill="#F0811F"/>
<path d="M104.059 133.263H102.595L99.8006 136.982V133.263H98.3369V139.506H99.6676L102.595 135.521V139.506H104.059V133.263Z" fill="#F0811F"/>
<path d="M106.453 139.506L107.917 137.115H108.582V139.506H110.046V137.115H110.711L112.175 139.506H113.772L111.776 136.318L113.506 133.396H111.909L110.711 135.787H110.046V133.396H108.582V135.787H107.917L106.719 133.396H105.123L106.852 136.318L104.856 139.506H106.453Z" fill="#F0811F"/>
<path d="M115.901 139.506V136.982H118.696V139.506H120.159V133.263H118.696V135.654H115.901V133.263H114.438V139.506H115.901Z" fill="#F0811F"/>
<path d="M127.212 136.982C127.212 136.717 127.212 136.584 127.212 136.451C127.212 134.592 126.148 133.263 124.285 133.263C122.555 133.263 121.357 134.724 121.357 136.451C121.357 138.178 122.688 139.639 124.418 139.639C125.349 139.639 126.015 139.373 126.68 138.842L126.015 137.78C125.616 138.178 125.216 138.311 124.551 138.311C123.753 138.311 122.954 137.779 122.821 136.85H127.212V136.982ZM124.285 134.459C125.083 134.459 125.616 134.99 125.749 135.787H122.688C122.954 134.99 123.62 134.459 124.285 134.459Z" fill="#F0811F"/>
<path d="M129.208 139.506L129.607 135.521L130.938 139.506H132.135L133.466 135.521L133.865 139.506H135.329L134.531 133.263H132.934L131.603 137.381L130.139 133.263H128.543L127.744 139.506H129.208Z" fill="#F0811F"/>
<path d="M140.785 139.508V135.921H144.511V139.508H146.108V131.272H144.511V134.46H140.785V131.272H139.188V139.508H140.785Z" fill="#F0811F"/>
<path d="M150.499 139.64C152.229 139.64 153.693 138.179 153.693 136.452C153.693 134.592 152.362 133.131 150.499 133.131C148.769 133.131 147.306 134.592 147.306 136.452C147.439 138.179 148.769 139.64 150.499 139.64ZM150.499 138.311C149.568 138.311 148.769 137.514 148.769 136.452C148.769 135.389 149.568 134.592 150.499 134.592C151.431 134.592 152.229 135.389 152.229 136.452C152.229 137.514 151.564 138.311 150.499 138.311Z" fill="#F0811F"/>
<path d="M157.951 139.506C159.016 139.506 160.08 138.975 160.08 137.647C160.08 136.982 159.548 136.318 158.883 136.186C159.415 136.053 159.681 135.521 159.681 134.99C159.681 133.927 158.883 133.263 157.552 133.263H154.891V139.506H157.951ZM156.354 134.459H157.685C158.084 134.459 158.483 134.724 158.483 135.123C158.483 135.521 158.084 135.787 157.685 135.787H156.354V134.459ZM156.354 136.85H157.818C158.217 136.85 158.75 137.115 158.75 137.647C158.75 138.178 158.35 138.444 157.951 138.444H156.487V136.85H156.354Z" fill="#F0811F"/>
<path d="M162.741 139.506V134.724H165.402V133.396H161.277V139.639H162.741V139.506Z" fill="#F0811F"/>
<path d="M168.73 139.64C170.46 139.64 171.923 138.179 171.923 136.452C171.923 134.592 170.593 133.131 168.73 133.131C167 133.131 165.536 134.592 165.536 136.452C165.669 138.179 167 139.64 168.73 139.64ZM168.73 138.311C167.798 138.311 167 137.514 167 136.452C167 135.389 167.798 134.592 168.73 134.592C169.661 134.592 170.46 135.389 170.46 136.452C170.46 137.514 169.661 138.311 168.73 138.311Z" fill="#F0811F"/>
<path d="M176.314 133.131C175.515 133.131 174.85 133.529 174.451 134.061L174.318 133.264H173.12V141.499H174.584V138.71C174.983 139.241 175.648 139.507 176.314 139.507C177.911 139.507 179.374 138.046 179.374 136.319C179.374 134.592 177.911 133.131 176.314 133.131ZM176.181 138.179C175.249 138.179 174.451 137.382 174.451 136.319C174.451 135.256 175.249 134.459 176.181 134.459C177.112 134.459 177.911 135.256 177.911 136.319C177.911 137.514 177.112 138.179 176.181 138.179Z" fill="#F0811F"/>
<path d="M183.234 139.64C184.964 139.64 186.427 138.179 186.427 136.452C186.427 134.592 185.097 133.131 183.234 133.131C181.504 133.131 180.04 134.592 180.04 136.452C180.173 138.179 181.504 139.64 183.234 139.64ZM183.234 138.311C182.302 138.311 181.504 137.514 181.504 136.452C181.504 135.389 182.302 134.592 183.234 134.592C184.165 134.592 184.964 135.389 184.964 136.452C184.964 137.514 184.165 138.311 183.234 138.311Z" fill="#F0811F"/>
<path d="M188.024 140.835V139.507H192.282V140.835H193.613V138.046H192.947V133.131H188.423L188.29 134.991C188.157 136.585 187.758 137.382 187.358 138.046H186.826V140.835H188.024ZM188.689 138.179C189.088 137.514 189.354 136.983 189.488 135.655L189.621 134.592H191.484V138.046H188.689V138.179Z" fill="#F0811F"/>
<path d="M199.734 136.982C199.734 136.717 199.734 136.584 199.734 136.451C199.734 134.592 198.669 133.263 196.806 133.263C195.077 133.263 193.879 134.724 193.879 136.451C193.879 138.178 195.21 139.639 196.939 139.639C197.871 139.639 198.536 139.373 199.202 138.842L198.536 137.78C198.137 138.178 197.738 138.311 197.073 138.311C196.274 138.311 195.476 137.779 195.343 136.85H199.734V136.982ZM196.939 134.459C197.738 134.459 198.27 134.99 198.403 135.787H195.343C195.609 134.99 196.141 134.459 196.939 134.459Z" fill="#F0811F"/>
<path d="M97.4855 0.664165C86.3079 3.45366 75.2633 6.24315 64.0857 9.16547C63.1542 9.43114 62.0897 9.6968 61.1582 9.96247C61.1582 13.9475 61.1582 17.9324 61.1582 22.0503C62.0897 21.9174 63.1542 21.7846 64.0857 21.6518C72.602 20.4563 81.1183 19.1279 89.6346 17.9324C89.6346 31.0829 89.6346 44.3662 89.6346 57.5167C83.7796 56.5868 77.7916 55.7898 71.9366 54.9928C71.9366 47.0229 71.9366 39.0529 71.9366 31.0829C71.0052 31.2157 69.9406 31.2157 69.0092 31.2157C67.2793 31.3486 65.8156 31.3486 64.0857 31.4814C63.1542 31.6142 62.0897 31.6142 61.1582 31.6142C61.1582 42.905 61.1582 54.063 61.1582 65.3538C62.0897 65.6195 63.1542 65.8851 64.0857 66.1508C75.2633 68.9403 86.3079 71.7298 97.4855 74.6521C98.417 74.9178 99.4816 75.1834 100.413 75.4491C100.413 50.3437 100.413 25.2383 100.413 0C99.4816 0.132833 98.417 0.398499 97.4855 0.664165Z" fill="#858F98"/>
<path d="M87.7711 52.7338V55.3905L73.666 53.398V31.082H80.4524V51.6711C82.9807 52.0696 85.3759 52.4681 87.7711 52.7338Z" fill="#AEB6C2"/>
<path d="M145.522 55.9227L141.664 56.5868L136.075 57.5167L117.711 60.7046L108.53 10.8923L108.397 10.361L108.264 9.69681L107.998 9.03264L135.809 14.8773L135.942 15.2758V15.4086L141.53 39.4514V9.96247L102.143 0V75.4491L141.53 65.4866V58.048L143.793 57.6495L145.522 55.9227ZM136.075 60.439L108.131 66.018V20.4563L115.982 62.5643L136.208 58.845V60.439H136.075Z" fill="#F0811F"/>
<path d="M112.921 14.876L116.248 32.8084L124.897 32.9413L121.437 16.3371L112.921 14.876Z" fill="#F8B473"/>
<path d="M129.288 53.5328L125.695 37.0615H117.046L120.506 54.8611L129.288 53.5328Z" fill="#F8B473"/>
<path d="M136.074 33.2081H136.474L136.074 31.0828L133.147 18.4636L124.231 16.8696L127.824 33.0752L136.074 33.2081Z" fill="#F8B473"/>
<path d="M136.075 52.7358L140.865 52.0716L137.405 37.0615H128.756L132.216 53.2671L136.075 52.7358Z" fill="#F8B473"/>
<path d="M107.998 20.4573V8.90088L117.579 60.7057L115.849 62.6982L107.998 20.4573Z" fill="#F0811F"/>
<path d="M87.7719 19.9248V23.6441H61.0254L87.7719 19.9248Z" fill="#AEB6C2"/>
</svg>
