<svg width="272" height="68" viewBox="0 0 272 68" fill="none" xmlns="http://www.w3.org/2000/svg">
<path d="M96.6632 37.3522V16.8803H106.377V12.3311H91.7461V37.3522H96.6632Z" fill="#35393F"/>
<path d="M123.407 29.5709C123.527 28.9723 123.527 28.4934 123.527 28.0146C123.527 22.3878 120.169 18.3174 114.292 18.3174C108.896 18.3174 105.178 22.747 105.178 28.1343C105.178 33.5216 109.255 37.9512 114.772 37.9512C117.65 37.9512 119.929 36.9934 121.608 35.3174L119.449 32.2047C118.37 33.2822 116.811 33.8808 115.012 33.8808C112.373 33.8808 110.215 32.3244 109.615 29.5709H123.407ZM114.412 22.2681C116.931 22.2681 118.49 23.7047 119.09 26.0991H109.615C110.215 23.585 112.134 22.2681 114.412 22.2681Z" fill="#35393F"/>
<path d="M135.881 37.8311C141.517 37.8311 145.835 33.5212 145.835 28.0142C145.835 22.5071 141.517 18.1973 136.001 18.1973C130.484 18.1973 126.167 22.5071 126.167 28.0142C126.047 33.5212 130.364 37.8311 135.881 37.8311ZM136.001 33.6409C133.002 33.6409 130.604 31.2466 130.604 28.1339C130.604 25.0212 133.002 22.6268 136.001 22.6268C138.999 22.6268 141.398 25.0212 141.398 28.1339C141.278 31.2466 138.879 33.6409 136.001 33.6409Z" fill="#35393F"/>
<path d="M152.071 37.3518L153.51 25.4997L157.708 37.3518H161.306L165.503 25.4997L166.942 37.4716H171.5L169.101 18.7955H163.944L159.627 31.2462L155.069 18.6758H149.912L147.514 37.3518H152.071Z" fill="#35393F"/>
<path d="M191.528 29.5709C191.648 28.9723 191.648 28.4934 191.648 28.0146C191.648 22.3878 188.29 18.3174 182.413 18.3174C177.017 18.3174 173.299 22.747 173.299 28.1343C173.299 33.5216 177.376 37.9512 182.893 37.9512C185.771 37.9512 188.05 36.9934 189.729 35.3174L187.57 32.2047C186.491 33.2822 184.932 33.8808 183.133 33.8808C180.495 33.8808 178.336 32.3244 177.736 29.5709H191.528ZM182.533 22.2681C185.052 22.2681 186.611 23.7047 187.211 26.0991H177.736C178.336 23.585 180.135 22.2681 182.533 22.2681Z" fill="#35393F"/>
<path d="M202.56 37.3518V22.8659H208.077V18.6758H192.486V22.8659H198.003V37.3518H202.56Z" fill="#35393F"/>
<path d="M220.911 18.3174C218.392 18.3174 216.473 19.3948 215.034 20.9512L214.674 18.6765H210.717V43.6977H215.274V35.4371C216.593 36.8737 218.392 37.8315 220.791 37.8315C225.948 37.8315 230.145 33.5216 230.145 28.0146C230.265 22.6272 226.068 18.3174 220.911 18.3174ZM220.551 33.5216C217.553 33.5216 215.154 31.247 215.154 28.1343C215.154 25.0216 217.553 22.6272 220.551 22.6272C223.549 22.6272 225.828 25.0216 225.828 28.1343C225.828 31.247 223.549 33.5216 220.551 33.5216Z" fill="#35393F"/>
<path d="M251.851 18.6758H247.294L238.659 29.9293V18.6758H234.102V37.3518H238.299L247.294 25.38V37.3518H251.851V18.6758Z" fill="#35393F"/>
<path d="M263.366 18.6758C259.288 18.6758 256.41 21.3096 256.41 24.9011C256.41 27.5349 257.729 29.0913 259.528 30.049L255.57 37.3518H260.727L263.845 31.1265C264.085 31.1265 264.325 31.1265 264.685 31.1265H267.443V37.3518H272.001V18.6758H263.366ZM263.606 27.5349C261.807 27.5349 260.727 26.3378 260.727 25.0209C260.727 23.4645 261.807 22.5068 263.486 22.5068H267.323V27.5349H263.606Z" fill="#35393F"/>
<path d="M95.4639 58.1834C97.5027 58.1834 99.1817 56.5074 99.1817 54.3525C99.1817 52.1975 97.5027 50.5215 95.4639 50.5215C93.4251 50.5215 91.7461 52.1975 91.7461 54.3525C91.7461 56.5074 93.3052 58.1834 95.4639 58.1834ZM95.4639 56.8665C94.2646 56.8665 93.1853 55.7891 93.1853 54.3525C93.1853 52.9158 94.2646 51.8384 95.4639 51.8384C96.6632 51.8384 97.7426 52.9158 97.7426 54.3525C97.7426 55.6694 96.6632 56.8665 95.4639 56.8665Z" fill="#F0811F"/>
<path d="M101.581 58.0637V55.9088H102.42L103.86 58.0637H105.419L103.5 55.1904L105.179 52.5566H103.62L102.42 54.7116H101.581V52.5566H100.262V58.1834H101.581V58.0637Z" fill="#F0811F"/>
<path d="M107.456 58.0643V55.7896H109.974V58.0643H111.294V52.4375H109.974V54.5924H107.456V52.4375H106.137V58.0643H107.456Z" fill="#F0811F"/>
<path d="M116.691 53.155C116.332 52.6761 115.732 52.317 115.012 52.317C113.573 52.317 112.254 53.6339 112.254 55.1902C112.254 56.8663 113.453 58.0635 115.012 58.0635C115.732 58.0635 116.332 57.7043 116.691 57.2254L116.811 57.824H118.011V52.1973H116.931L116.691 53.155ZM115.132 56.8663C114.293 56.8663 113.573 56.148 113.573 55.1902C113.573 54.2325 114.293 53.5142 115.132 53.5142C115.972 53.5142 116.691 54.2325 116.691 55.1902C116.691 56.2677 115.972 56.8663 115.132 56.8663Z" fill="#F0811F"/>
<path d="M126.885 52.4375H125.566L123.048 55.7896V52.4375H121.729V58.0643H122.928L125.566 54.4727V58.0643H126.885V52.4375Z" fill="#F0811F"/>
<path d="M131.323 59.261V58.0639H135.161V59.261H136.361V56.747H135.761V52.3174H131.683L131.563 53.9934C131.443 55.4301 131.084 56.1484 130.724 56.747H130.244V59.261H131.323ZM131.923 56.8667C132.283 56.2681 132.523 55.7892 132.643 54.592L132.763 53.6343H134.442V56.747H131.923V56.8667Z" fill="#F0811F"/>
<path d="M139.717 58.0643C140.677 58.0643 141.636 57.5854 141.636 56.3882C141.636 55.7896 141.157 55.191 140.557 55.0713C141.037 54.9516 141.276 54.4727 141.276 53.9938C141.276 53.0361 140.557 52.4375 139.358 52.4375H136.959V58.0643H139.717ZM138.278 53.515H139.478C139.837 53.515 140.197 53.7544 140.197 54.1136C140.197 54.4727 139.837 54.7121 139.478 54.7121H138.278V53.515ZM138.278 55.6699H139.597C139.957 55.6699 140.437 55.9093 140.437 56.3882C140.437 56.8671 140.077 57.1065 139.717 57.1065H138.278V55.6699Z" fill="#F0811F"/>
<path d="M147.632 55.7896C147.632 55.5502 147.632 55.4305 147.632 55.3107C147.632 53.6347 146.673 52.4375 144.994 52.4375C143.435 52.4375 142.355 53.7544 142.355 55.3107C142.355 56.8671 143.555 58.184 145.114 58.184C145.953 58.184 146.553 57.9445 147.153 57.4657L146.553 56.5079C146.193 56.8671 145.833 56.9868 145.234 56.9868C144.514 56.9868 143.795 56.5079 143.675 55.6699H147.632V55.7896ZM145.114 53.515C145.833 53.515 146.313 53.9938 146.433 54.7121H143.675C143.915 53.9938 144.394 53.515 145.114 53.515Z" fill="#F0811F"/>
<path d="M151.71 52.3174C150.991 52.3174 150.391 52.6765 150.031 53.1554L149.911 52.4371H148.832V59.8596H150.151V57.3455C150.511 57.8244 151.111 58.0639 151.71 58.0639C153.149 58.0639 154.469 56.747 154.469 55.1906C154.349 53.6343 153.149 52.3174 151.71 52.3174ZM151.59 56.8667C150.751 56.8667 150.031 56.1484 150.031 55.1906C150.031 54.2329 150.751 53.5146 151.59 53.5146C152.43 53.5146 153.149 54.2329 153.149 55.1906C153.03 56.2681 152.43 56.8667 151.59 56.8667Z" fill="#F0811F"/>
<path d="M160.587 52.4375H159.267L156.749 55.7896V52.4375H155.43V58.0643H156.629L159.267 54.4727V58.0643H160.587V52.4375Z" fill="#F0811F"/>
<path d="M167.061 58.0643C168.021 58.0643 168.98 57.5854 168.98 56.3882C168.98 55.7896 168.5 55.191 167.901 55.0713C168.38 54.9516 168.62 54.4727 168.62 53.9938C168.62 53.0361 167.901 52.4375 166.701 52.4375H164.303V58.0643H167.061ZM165.622 53.515H166.821C167.181 53.515 167.541 53.7544 167.541 54.1136C167.541 54.4727 167.181 54.7121 166.821 54.7121H165.622V53.515ZM165.622 55.6699H166.941C167.301 55.6699 167.781 55.9093 167.781 56.3882C167.781 56.8671 167.421 57.1065 167.061 57.1065H165.742V55.6699H165.622Z" fill="#F0811F"/>
<path d="M174.138 58.0641V54.8317H177.496V58.0641H178.936V50.6416H177.496V53.5148H174.138V50.6416H172.699V58.0641H174.138Z" fill="#F0811F"/>
<path d="M185.532 52.4375H184.213L181.694 55.7896V52.4375H180.375V58.0643H181.574L184.213 54.4727V58.0643H185.532V52.4375Z" fill="#F0811F"/>
<path d="M187.689 58.0637L189.008 55.9088H189.608V58.0637H190.927V55.9088H191.527L192.846 58.0637H194.285L192.486 55.1904L194.045 52.5566H192.606L191.527 54.7116H190.927V52.5566H189.608V54.7116H189.008L187.929 52.5566H186.49L188.049 55.1904L186.25 58.0637H187.689Z" fill="#F0811F"/>
<path d="M196.204 58.0643V55.7896H198.723V58.0643H200.042V52.4375H198.723V54.5924H196.204V52.4375H194.885V58.0643H196.204Z" fill="#F0811F"/>
<path d="M206.398 55.7896C206.398 55.5502 206.398 55.4305 206.398 55.3107C206.398 53.6347 205.439 52.4375 203.76 52.4375C202.2 52.4375 201.121 53.7544 201.121 55.3107C201.121 56.8671 202.32 58.184 203.879 58.184C204.719 58.184 205.319 57.9445 205.918 57.4657L205.319 56.5079C204.959 56.8671 204.599 56.9868 203.999 56.9868C203.28 56.9868 202.56 56.5079 202.44 55.6699H206.398V55.7896ZM203.76 53.515C204.479 53.515 204.959 53.9938 205.079 54.7121H202.32C202.56 53.9938 203.16 53.515 203.76 53.515Z" fill="#F0811F"/>
<path d="M208.198 58.0643L208.558 54.4727L209.757 58.0643H210.837L212.036 54.4727L212.396 58.0643H213.715L212.995 52.4375H211.556L210.357 56.1488L209.038 52.4375H207.598L206.879 58.0643H208.198Z" fill="#F0811F"/>
<path d="M218.631 58.0641V54.8317H221.989V58.0641H223.428V50.6416H221.989V53.5148H218.631V50.6416H217.191V58.0641H218.631Z" fill="#F0811F"/>
<path d="M227.386 58.1836C228.945 58.1836 230.264 56.8667 230.264 55.3103C230.264 53.6343 229.065 52.3174 227.386 52.3174C225.827 52.3174 224.508 53.6343 224.508 55.3103C224.628 56.8667 225.827 58.1836 227.386 58.1836ZM227.386 56.9864C226.547 56.9864 225.827 56.2681 225.827 55.3103C225.827 54.3526 226.547 53.6343 227.386 53.6343C228.226 53.6343 228.945 54.3526 228.945 55.3103C228.945 56.2681 228.346 56.9864 227.386 56.9864Z" fill="#F0811F"/>
<path d="M234.102 58.0643C235.062 58.0643 236.021 57.5854 236.021 56.3882C236.021 55.7896 235.541 55.191 234.942 55.0713C235.421 54.9516 235.661 54.4727 235.661 53.9938C235.661 53.0361 234.942 52.4375 233.742 52.4375H231.344V58.0643H234.102ZM232.663 53.515H233.862C234.222 53.515 234.582 53.7544 234.582 54.1136C234.582 54.4727 234.222 54.7121 233.862 54.7121H232.663V53.515ZM232.663 55.6699H233.982C234.342 55.6699 234.822 55.9093 234.822 56.3882C234.822 56.8671 234.462 57.1065 234.102 57.1065H232.783V55.6699H232.663Z" fill="#F0811F"/>
<path d="M238.421 58.0637V53.7538H240.819V52.5566H237.102V58.1834H238.421V58.0637Z" fill="#F0811F"/>
<path d="M243.816 58.1836C245.375 58.1836 246.694 56.8667 246.694 55.3103C246.694 53.6343 245.495 52.3174 243.816 52.3174C242.257 52.3174 240.938 53.6343 240.938 55.3103C241.057 56.8667 242.257 58.1836 243.816 58.1836ZM243.816 56.9864C242.976 56.9864 242.257 56.2681 242.257 55.3103C242.257 54.3526 242.976 53.6343 243.816 53.6343C244.655 53.6343 245.375 54.3526 245.375 55.3103C245.375 56.2681 244.655 56.9864 243.816 56.9864Z" fill="#F0811F"/>
<path d="M250.652 52.3174C249.932 52.3174 249.333 52.6765 248.973 53.1554L248.853 52.4371H247.773V59.8596H249.093V57.3455C249.452 57.8244 250.052 58.0639 250.652 58.0639C252.091 58.0639 253.41 56.747 253.41 55.1906C253.41 53.6343 252.091 52.3174 250.652 52.3174ZM250.532 56.8667C249.692 56.8667 248.973 56.1484 248.973 55.1906C248.973 54.2329 249.692 53.5146 250.532 53.5146C251.371 53.5146 252.091 54.2329 252.091 55.1906C252.091 56.2681 251.371 56.8667 250.532 56.8667Z" fill="#F0811F"/>
<path d="M256.89 58.1836C258.449 58.1836 259.768 56.8667 259.768 55.3103C259.768 53.6343 258.569 52.3174 256.89 52.3174C255.331 52.3174 254.012 53.6343 254.012 55.3103C254.132 56.8667 255.331 58.1836 256.89 58.1836ZM256.89 56.9864C256.051 56.9864 255.331 56.2681 255.331 55.3103C255.331 54.3526 256.051 53.6343 256.89 53.6343C257.73 53.6343 258.449 54.3526 258.449 55.3103C258.449 56.2681 257.73 56.9864 256.89 56.9864Z" fill="#F0811F"/>
<path d="M261.206 59.261V58.0639H265.044V59.261H266.243V56.747H265.644V52.3174H261.566L261.446 53.9934C261.326 55.4301 260.966 56.1484 260.607 56.747H260.127V59.261H261.206ZM261.806 56.8667C262.166 56.2681 262.406 55.7892 262.526 54.592L262.645 53.6343H264.324V56.747H261.806V56.8667Z" fill="#F0811F"/>
<path d="M271.759 55.7896C271.759 55.5502 271.759 55.4305 271.759 55.3107C271.759 53.6347 270.8 52.4375 269.121 52.4375C267.562 52.4375 266.482 53.7544 266.482 55.3107C266.482 56.8671 267.682 58.184 269.241 58.184C270.08 58.184 270.68 57.9445 271.28 57.4657L270.68 56.5079C270.32 56.8671 269.96 56.9868 269.361 56.9868C268.641 56.9868 267.922 56.5079 267.802 55.6699H271.759V55.7896ZM269.241 53.515C269.96 53.515 270.44 53.9938 270.56 54.7121H267.802C268.042 53.9938 268.521 53.515 269.241 53.515Z" fill="#F0811F"/>
<path d="M32.8599 0.598592C22.7858 3.11268 12.8317 5.62676 2.75759 8.26056C1.91808 8.5 0.958647 8.73944 0.119141 8.97887C0.119141 12.5704 0.119141 16.162 0.119141 19.8732C0.958647 19.7535 1.91808 19.6338 2.75759 19.5141C10.4331 18.4366 18.1086 17.2394 25.784 16.162C25.784 28.0141 25.784 39.9859 25.784 51.838C20.5072 51 15.1103 50.2817 9.83343 49.5634C9.83343 42.3803 9.83343 35.1972 9.83343 28.0141C8.99392 28.1338 8.03449 28.1338 7.19498 28.1338C5.6359 28.2535 4.31667 28.2535 2.75759 28.3732C1.91808 28.493 0.958647 28.493 0.119141 28.493C0.119141 38.669 0.119141 48.7254 0.119141 58.9014C0.958647 59.1408 1.91808 59.3803 2.75759 59.6197C12.8317 62.1338 22.7858 64.6479 32.8599 67.2817C33.6994 67.5211 34.6588 67.7606 35.4983 68C35.4983 45.3732 35.4983 22.7465 35.4983 0C34.6588 0.119718 33.6994 0.359155 32.8599 0.598592Z" fill="#858F98"/>
<path d="M24.1051 47.5278V49.9221L11.3926 48.1264V28.0137H17.509V46.57C19.7876 46.9292 21.9464 47.2883 24.1051 47.5278Z" fill="#AEB6C2"/>
<path d="M76.1556 50.4014L72.6777 51L67.6406 51.838L51.0903 54.7113L42.8152 9.8169L42.6953 9.33803L42.5754 8.73944L42.3355 8.14085L67.4008 13.4085L67.5207 13.7676V13.8873L72.5577 35.5563V8.97887L37.0586 0V68L72.5577 59.0211V52.3169L74.5965 51.9577L76.1556 50.4014ZM67.6406 54.4718L42.4554 59.5V18.4366L49.5313 56.3873L67.7605 53.0352V54.4718H67.6406Z" fill="#F0811F"/>
<path d="M46.7734 13.4082L49.7717 29.5702L57.5671 29.6899L54.4489 14.7251L46.7734 13.4082Z" fill="#F8B473"/>
<path d="M61.5237 48.2464L58.2857 33.4014H50.4902L53.6084 49.4436L61.5237 48.2464Z" fill="#F8B473"/>
<path d="M67.6405 29.9295H68.0003L67.6405 28.014L65.0021 16.6407L56.9668 15.2041L60.2049 29.8097L67.6405 29.9295Z" fill="#F8B473"/>
<path d="M67.641 47.5281L71.9585 46.9295L68.8403 33.4014H61.0449L64.1631 48.007L67.641 47.5281Z" fill="#F8B473"/>
<path d="M42.3359 18.437V8.02148L50.9709 54.7116L49.4118 56.5074L42.3359 18.437Z" fill="#F0811F"/>
<path d="M24.1058 17.958V21.3101H0L24.1058 17.958Z" fill="#AEB6C2"/>
</svg>
