<svg width="60" height="60" viewBox="0 0 60 60" fill="none" xmlns="http://www.w3.org/2000/svg">
<path d="M29.9999 0C17.9046 0 8.06445 10.017 8.06445 22.3295C8.06445 29.2167 11.5477 37.576 18.4179 47.1753C23.4455 54.2005 28.3997 59.2107 28.6082 59.4207C28.9914 59.8065 29.4955 60 30.0002 60C30.4903 60 30.9807 59.8174 31.3609 59.4512C31.5699 59.25 36.5366 54.4426 41.5737 47.5145C48.4493 38.0573 51.9356 29.5839 51.9356 22.3294C51.9353 10.017 42.0949 0 29.9999 0ZM29.9999 31.9695C24.0866 31.9695 19.2759 27.1587 19.2759 21.2456C19.2759 15.3324 24.0867 10.5216 29.9999 10.5216C35.9131 10.5216 40.7239 15.3324 40.7239 21.2456C40.7239 27.1587 35.9129 31.9695 29.9999 31.9695Z" fill="#F0811F"/>
<circle cx="30" cy="23" r="18" fill="white"/>
<path d="M28.1141 12.2025C24.7067 13.0528 21.3399 13.9032 17.9325 14.794C17.6485 14.875 17.324 14.956 17.04 15.037C17.04 16.2518 17.04 17.4665 17.04 18.7218C17.324 18.6813 17.6485 18.6408 17.9325 18.6004C20.5286 18.2359 23.1247 17.831 25.7208 17.4665C25.7208 21.4754 25.7208 25.5246 25.7208 29.5335C23.936 29.25 22.1106 29.007 20.3258 28.7641C20.3258 26.3345 20.3258 23.9049 20.3258 21.4754C20.0418 21.5158 19.7173 21.5158 19.4333 21.5158C18.906 21.5563 18.4598 21.5563 17.9325 21.5968C17.6485 21.6373 17.324 21.6373 17.04 21.6373C17.04 25.0792 17.04 28.4806 17.04 31.9225C17.324 32.0035 17.6485 32.0845 17.9325 32.1655C21.3399 33.0158 24.7067 33.8662 28.1141 34.757C28.3981 34.838 28.7226 34.919 29.0065 35C29.0065 27.3468 29.0065 19.6937 29.0065 12C28.7226 12.0405 28.3981 12.1215 28.1141 12.2025Z" fill="#858F98"/>
<path d="M25.1533 28.0764V28.8863L20.8535 28.2789V21.4761H22.9223V27.7525C23.693 27.874 24.4232 27.9954 25.1533 28.0764Z" fill="#AEB6C2"/>
<path d="M42.7582 29.0475L41.5818 29.25L39.8781 29.5335L34.2802 30.5053L31.4813 15.3204L31.4407 15.1585L31.4001 14.956L31.319 14.7535L39.797 16.5352L39.8375 16.6567V16.6972L41.5412 24.0264V15.037L29.5342 12V35L41.5412 31.963V29.6954L42.2308 29.5739L42.7582 29.0475ZM39.8781 30.4243L31.3596 32.125V18.2359L33.7529 31.0722L39.9187 29.9384V30.4243H39.8781Z" fill="#F0811F"/>
<path d="M32.8203 16.5347L33.8344 22.0012L36.4711 22.0417L35.4164 16.9801L32.8203 16.5347Z" fill="#F8B473"/>
<path d="M37.8091 28.319L36.7138 23.2979H34.0771L35.1318 28.7239L37.8091 28.319Z" fill="#F8B473"/>
<path d="M39.8778 22.1227H39.9995L39.8778 21.4748L38.9854 17.628L36.2676 17.1421L37.3628 22.0822L39.8778 22.1227Z" fill="#F8B473"/>
<path d="M39.8785 28.076L41.3388 27.8736L40.2841 23.2979H37.6475L38.7021 28.238L39.8785 28.076Z" fill="#F8B473"/>
<path d="M31.3193 18.2368V14.7139L34.24 30.5061L33.7126 31.1135L31.3193 18.2368Z" fill="#F0811F"/>
<path d="M25.1534 18.0737V19.2075H17L25.1534 18.0737Z" fill="#AEB6C2"/>
</svg>
