<svg width="60" height="60" viewBox="0 0 60 60" fill="none" xmlns="http://www.w3.org/2000/svg">
<g clip-path="url(#clip0)">
<path d="M59.9995 5.958C60.0032 5.14315 59.6789 4.36109 59.0995 3.78801L56.2116 0.900038C55.6412 0.32341 54.8637 -0.000689942 54.0526 1.10282e-06H54.0426C53.2364 0.000494707 52.4644 0.324792 51.8996 0.900038L38.7997 13.9999H12.9999V3.00003C12.9999 1.3431 11.6567 1.10282e-06 9.99992 1.10282e-06H7.99993C3.58376 0.00493714 0.00493604 3.58376 0 7.99994V52.2506C0.250257 56.6331 3.90056 60.0451 8.28998 59.9995H56.9996C58.6564 59.9995 59.9995 58.6564 59.9995 56.9996V16.9999C59.9995 15.3431 58.6564 13.9999 56.9996 13.9999H53.1996L59.0996 8.09994C59.6736 7.53486 59.9977 6.76356 59.9995 5.958ZM35.7798 24.9998C35.5681 25.0287 35.3554 24.9542 35.2078 24.7998C35.0589 24.652 34.9853 24.4444 35.0078 24.2358L35.3867 20.8359C35.4026 20.7648 35.4227 20.6946 35.4468 20.6259L39.3857 24.5649C39.3208 24.5789 39.2617 24.6109 39.1937 24.6189L35.7798 24.9998ZM41.0187 23.3668L36.6427 18.9898L47.5426 8.08997L51.9165 12.4629L41.0187 23.3668ZM48.9527 6.6749L50.4356 5.19291L54.8076 9.56584L53.3256 11.0488L48.9527 6.6749ZM1.99998 7.99994C2.00334 4.68766 4.68766 2.00324 7.99993 1.99998H9.99992C10.5522 1.99998 11 2.44768 11 2.99993V42.9996C11 43.5518 10.5523 43.9995 9.99992 43.9995H7.99993C5.7026 43.9988 3.51633 44.9877 1.99998 46.7135V7.99994ZM56.9996 15.9999C57.5518 15.9999 57.9996 16.4476 57.9996 16.9999V56.9996C57.9996 57.5518 57.5519 57.9996 56.9996 57.9996H8.28998C4.98875 58.0551 2.22319 55.5137 1.99998 52.2196V51.9996C2.00334 48.6873 4.68766 46.003 7.99993 45.9996H9.99992C11.6567 45.9996 12.9998 44.6565 12.9998 42.9997V15.9999H36.7996L34.5287 18.2708C33.8947 18.8955 33.4958 19.72 33.3997 20.6048L33.0207 24.0117C32.9895 24.344 33.0211 24.6791 33.1137 24.9997H15.9999C15.4476 24.9997 14.9998 25.4474 14.9998 25.9998C14.9998 26.552 15.4475 26.9997 15.9999 26.9997H18.9999V53.9996C18.9999 54.5518 19.4476 54.9996 19.9999 54.9996C20.5523 54.9996 21 54.5519 21 53.9996V39.9997H31.9998V47.9996H24.9998C24.4476 47.9996 23.9999 48.4473 23.9999 48.9995C23.9999 49.5518 24.4476 49.9996 24.9998 49.9996H44.9997C46.1043 49.9996 46.9997 49.1042 46.9997 47.9996V32.9998C46.9997 32.4475 46.552 31.9997 45.9997 31.9997C45.4475 31.9997 44.9997 32.4474 44.9997 32.9998V37.9997H20.9999V26.9998H35.7078C35.8053 27 35.9029 26.9947 35.9998 26.9838L39.4167 26.5949C40.284 26.4964 41.0935 26.111 41.7167 25.4999L51.2047 16H56.9996V15.9999ZM44.9997 39.9997V47.9996H33.9997V39.9997H44.9997ZM57.6895 6.68191L56.2216 8.15088L51.8496 3.77893L53.3186 2.30997C53.5108 2.11272 53.7742 2.00097 54.0496 1.99998C54.33 2.00068 54.5983 2.11381 54.7946 2.31402L57.6866 5.20002C57.8877 5.39805 58.0005 5.66874 57.9996 5.95099C57.9987 6.22642 57.887 6.4899 57.6895 6.68191Z" fill="#F0811F"/>
</g>
<defs>
<clipPath id="clip0">
<rect width="60" height="60" fill="white"/>
</clipPath>
</defs>
</svg>
