<svg width="60" height="60" viewBox="0 0 60 60" fill="none" xmlns="http://www.w3.org/2000/svg">
<path d="M35.5527 39.1406H38.251C38.4685 39.1406 38.6772 39.0542 38.831 38.9004C38.9849 38.7465 39.0713 38.5379 39.0713 38.3203C39.0713 38.1028 38.9849 37.8941 38.831 37.7403C38.6772 37.5864 38.4685 37.5 38.251 37.5H35.5527C35.3352 37.5 35.1265 37.5864 34.9727 37.7403C34.8188 37.8941 34.7324 38.1028 34.7324 38.3203C34.7324 38.5379 34.8188 38.7465 34.9727 38.9004C35.1265 39.0542 35.3352 39.1406 35.5527 39.1406Z" fill="#F0811F"/>
<path d="M35.5527 43.8281H38.251C38.4685 43.8281 38.6772 43.7417 38.831 43.5879C38.9849 43.434 39.0713 43.2254 39.0713 43.0078C39.0713 42.7903 38.9849 42.5816 38.831 42.4278C38.6772 42.2739 38.4685 42.1875 38.251 42.1875H35.5527C35.3352 42.1875 35.1265 42.2739 34.9727 42.4278C34.8188 42.5816 34.7324 42.7903 34.7324 43.0078C34.7324 43.2254 34.8188 43.434 34.9727 43.5879C35.1265 43.7417 35.3352 43.8281 35.5527 43.8281Z" fill="#F0811F"/>
<path d="M35.5527 48.3984H38.251C38.4685 48.3984 38.6772 48.312 38.831 48.1582C38.9849 48.0043 39.0713 47.7957 39.0713 47.5781C39.0713 47.3606 38.9849 47.1519 38.831 46.9981C38.6772 46.8442 38.4685 46.7578 38.251 46.7578H35.5527C35.3352 46.7578 35.1265 46.8442 34.9727 46.9981C34.8188 47.1519 34.7324 47.3606 34.7324 47.5781C34.7324 47.7957 34.8188 48.0043 34.9727 48.1582C35.1265 48.312 35.3352 48.3984 35.5527 48.3984Z" fill="#F0811F"/>
<path d="M19.4531 41.8184C19.2356 41.8184 19.0269 41.9048 18.8731 42.0586C18.7192 42.2125 18.6328 42.4211 18.6328 42.6387V51.8085C18.6328 52.026 18.7192 52.2347 18.8731 52.3885C19.0269 52.5424 19.2356 52.6288 19.4531 52.6288C19.6707 52.6288 19.8793 52.5424 20.0332 52.3885C20.187 52.2347 20.2734 52.026 20.2734 51.8085V42.6387C20.2734 42.4211 20.187 42.2125 20.0332 42.0586C19.8793 41.9048 19.6707 41.8184 19.4531 41.8184Z" fill="#F0811F"/>
<path d="M16.0547 41.8184C15.8371 41.8184 15.6285 41.9048 15.4746 42.0586C15.3208 42.2125 15.2344 42.4211 15.2344 42.6387V51.8085C15.2344 52.026 15.3208 52.2347 15.4746 52.3885C15.6285 52.5424 15.8371 52.6288 16.0547 52.6288C16.2722 52.6288 16.4809 52.5424 16.6347 52.3885C16.7886 52.2347 16.875 52.026 16.875 51.8085V42.6387C16.875 42.4211 16.7886 42.2125 16.6347 42.0586C16.4809 41.9048 16.2722 41.8184 16.0547 41.8184Z" fill="#F0811F"/>
<path d="M24.0042 32.0358C24.004 31.4049 23.7541 30.7997 23.3092 30.3524C22.8643 29.9051 22.2605 29.652 21.6296 29.6484H20.156V11.7765L21.301 9.33281C21.3813 9.1569 21.3967 8.95827 21.3446 8.77207L19.786 2.84027C19.7391 2.66434 19.6353 2.50882 19.4909 2.39785C19.3466 2.28688 19.1696 2.22667 18.9875 2.22656H16.5008C16.3193 2.22683 16.143 2.28719 15.9995 2.39822C15.8559 2.50925 15.7532 2.66469 15.7073 2.84027L14.153 8.77148C14.1009 8.95777 14.1164 9.15649 14.1968 9.33246L15.3513 11.7765V29.6484H13.8587C13.2898 29.6512 12.7406 29.8571 12.3102 30.2291C11.8798 30.6011 11.5964 31.1146 11.5113 31.6771C11.4261 32.2396 11.5447 32.814 11.8458 33.2967C12.1468 33.7794 12.6104 34.1387 13.153 34.3097L11.6165 39.7148C11.6008 39.7904 11.5957 39.8678 11.6013 39.9448V53.1894C11.6013 55.7513 13.6521 57.8906 16.2138 57.8906H19.2745C21.8362 57.8906 23.906 55.7513 23.906 53.1894V39.9451C23.9084 39.8688 23.9001 39.7925 23.8813 39.7185L22.3317 34.3097C22.8157 34.1572 23.2387 33.8547 23.5394 33.4459C23.84 33.0371 24.0028 32.5433 24.0042 32.0358ZM17.1338 3.86719H18.3545L19.6722 8.89664L18.5764 11.2383C18.5299 11.3498 18.509 11.4704 18.5153 11.5911V29.6484H16.9919V11.5911C16.9951 11.4698 16.9711 11.3492 16.9216 11.2384L15.8117 8.89664L17.1338 3.86719ZM22.2654 53.1894C22.2654 54.8466 20.9316 56.25 19.2745 56.25H16.2138C14.5566 56.25 13.2419 54.8466 13.2419 53.1894V40.0608L14.8293 34.4531H20.6589L22.2654 40.0608V53.1894ZM21.6296 32.8125H13.8587C13.6566 32.8125 13.4629 32.7322 13.3201 32.5894C13.1772 32.4465 13.0969 32.2528 13.0969 32.0508C13.0969 31.8488 13.1772 31.655 13.3201 31.5122C13.4629 31.3693 13.6566 31.2891 13.8587 31.2891H21.6296C21.8316 31.2891 22.0254 31.3693 22.1682 31.5122C22.3111 31.655 22.3913 31.8488 22.3913 32.0508C22.3913 32.2528 22.3111 32.4465 22.1682 32.5894C22.0254 32.7322 21.8316 32.8125 21.6296 32.8125Z" fill="#F0811F"/>
<path d="M36.9146 57.8355C37.5168 57.8343 38.1128 57.7144 38.6686 57.4826C39.2243 57.2507 39.7289 56.9116 40.1534 56.4845C40.5779 56.0574 40.9141 55.5508 41.1425 54.9937C41.371 54.4366 41.4874 53.8398 41.485 53.2377V23.3226C43.565 22.4186 45.3368 20.9285 46.584 19.0342C47.8313 17.14 48.4999 14.9235 48.5084 12.6555C48.5159 10.4947 47.9175 8.37511 46.7811 6.53731C45.6446 4.6995 44.0156 3.21714 42.0791 2.25854C41.9544 2.19616 41.8159 2.16679 41.6766 2.17323C41.5374 2.17968 41.4021 2.22172 41.2837 2.29534C41.1653 2.36896 41.0678 2.4717 41.0005 2.59376C40.9331 2.71581 40.8982 2.85309 40.899 2.99249V8.743L36.9448 11.3753L32.9068 8.55116L32.9255 2.98886C32.9258 2.84884 32.8904 2.71106 32.8226 2.58858C32.7547 2.4661 32.6567 2.36299 32.5378 2.28903C32.4189 2.21507 32.2831 2.17272 32.1433 2.16599C32.0034 2.15926 31.8641 2.18837 31.7387 2.25057C29.7994 3.20792 28.1683 4.69109 27.0313 6.53087C25.8944 8.37065 25.2975 10.493 25.3087 12.6557C25.3197 14.9247 25.9907 17.1414 27.24 19.0356C28.4893 20.9297 30.2629 22.4193 32.3443 23.3226V53.2377C32.3419 53.8398 32.4583 54.4366 32.6868 54.9937C32.9152 55.5508 33.2514 56.0574 33.6759 56.4845C34.1004 56.9116 34.605 57.2507 35.1607 57.4826C35.7165 57.7144 36.3125 57.8343 36.9146 57.8355ZM26.9303 12.6555C26.9245 11.0306 27.3182 9.42917 28.0768 7.99216C28.8353 6.55514 29.9355 5.32661 31.2804 4.41468L31.2648 8.97456C31.2644 9.10695 31.296 9.23748 31.3569 9.355C31.4179 9.47252 31.5064 9.57355 31.6148 9.64944L36.4621 13.0405C36.5972 13.1352 36.7578 13.1868 36.9228 13.1887C37.0879 13.1906 37.2496 13.1427 37.3869 13.0512L42.173 9.86518C42.2855 9.79031 42.3779 9.68882 42.4419 9.56971C42.5058 9.45059 42.5394 9.31753 42.5396 9.18233V4.42264C44.0469 5.45532 45.2417 6.88211 45.9936 8.54735C46.7455 10.2126 47.0256 12.0523 46.8035 13.8659C46.5813 15.6795 45.8654 17.3972 44.7338 18.8317C43.6022 20.2663 42.0983 21.3625 40.3863 22.0008C40.2288 22.0588 40.0927 22.1633 39.9959 22.3004C39.8991 22.4376 39.8462 22.6009 39.8443 22.7687V53.2374C39.8443 54.0145 39.5357 54.7596 38.9862 55.3091C38.4368 55.8585 37.6916 56.1671 36.9146 56.1671C36.1376 56.1671 35.3925 55.8585 34.843 55.3091C34.2936 54.7596 33.985 54.0145 33.985 53.2374V22.7687C33.9809 22.5998 33.9259 22.4361 33.8272 22.2989C33.7285 22.1618 33.5907 22.0577 33.4318 22.0002C31.5292 21.2843 29.8889 20.0076 28.7279 18.3389C27.5669 16.6702 26.94 14.6883 26.9303 12.6555Z" fill="#F0811F"/>
</svg>
