<svg width="60" height="60" viewBox="0 0 60 60" fill="none" xmlns="http://www.w3.org/2000/svg">
<path d="M56.1328 52.818H54.4467V2.14547C54.4486 1.88955 54.3489 1.64333 54.1695 1.46081C53.9901 1.27829 53.7457 1.17438 53.4898 1.17188H6.8802C6.62427 1.17438 6.37979 1.27829 6.20037 1.4608C6.02096 1.64332 5.92125 1.88954 5.92312 2.14547V52.818H3.86719C3.61863 52.8183 3.38034 52.9172 3.20458 53.0929C3.02883 53.2687 2.92997 53.507 2.92969 53.7555V57.8906C2.92997 58.1392 3.02883 58.3775 3.20458 58.5532C3.38034 58.729 3.61863 58.8278 3.86719 58.8281H56.1328C56.3814 58.8278 56.6197 58.729 56.7954 58.5532C56.9712 58.3775 57.07 58.1392 57.0703 57.8906V53.7555C57.07 53.507 56.9712 53.2687 56.7954 53.0929C56.6197 52.9172 56.3814 52.8183 56.1328 52.818ZM30.3398 52.818L30.5912 29.4891H53.0405V52.818H30.3398ZM53.0405 28.0828H30.6059L30.8805 2.57812H53.0407L53.0405 28.0828ZM29.4742 2.57812L29.1994 28.0828H7.32937V2.57812H29.4742ZM7.32937 29.4891H29.1848L28.9336 52.818H7.32937V29.4891ZM55.6641 57.4219H4.33594V54.2243H55.6641V57.4219Z" fill="#F0811F"/>
<path d="M12.5351 14.1816C12.688 14.2883 12.8771 14.3299 13.0607 14.2972C13.2443 14.2646 13.4074 14.1603 13.5141 14.0074L18.8579 6.35426C18.9646 6.20134 19.0063 6.01228 18.9736 5.82866C18.941 5.64505 18.8367 5.48192 18.6838 5.37516C18.5309 5.2684 18.3419 5.22675 18.1582 5.25939C17.9746 5.29202 17.8115 5.39627 17.7047 5.54918L12.361 13.2025C12.3081 13.2782 12.2707 13.3636 12.2508 13.4538C12.231 13.5439 12.2291 13.6372 12.2452 13.7281C12.2614 13.819 12.2953 13.9058 12.3451 13.9837C12.3948 14.0615 12.4594 14.1287 12.5351 14.1816Z" fill="#F0811F"/>
<path d="M16.7989 15.016C16.8769 15.0655 16.9638 15.0991 17.0548 15.115C17.1458 15.1309 17.239 15.1287 17.3291 15.1086C17.4192 15.0885 17.5045 15.0508 17.5801 14.9977C17.6556 14.9446 17.72 14.8771 17.7695 14.7992L20.7174 10.155C20.8161 9.99761 20.8484 9.80757 20.8073 9.6264C20.7663 9.44523 20.6552 9.28767 20.4984 9.18812C20.3416 9.08856 20.1517 9.05512 19.9703 9.09508C19.7889 9.13504 19.6307 9.24516 19.5302 9.4014L16.5822 14.0454C16.5327 14.1234 16.4991 14.2103 16.4832 14.3013C16.4673 14.3922 16.4694 14.4854 16.4895 14.5756C16.5097 14.6657 16.5473 14.751 16.6004 14.8265C16.6535 14.9021 16.721 14.9665 16.7989 15.016Z" fill="#F0811F"/>
<path d="M43.0968 34.9894C43.0211 34.9365 42.9357 34.8991 42.8455 34.8792C42.7553 34.8594 42.6621 34.8575 42.5712 34.8737C42.4802 34.8898 42.3934 34.9238 42.3156 34.9735C42.2378 35.0232 42.1705 35.0878 42.1177 35.1635L36.7747 42.8167C36.7208 42.8924 36.6826 42.9779 36.662 43.0685C36.6414 43.159 36.639 43.2528 36.6549 43.3442C36.6707 43.4357 36.7045 43.5232 36.7543 43.6015C36.8042 43.6799 36.869 43.7476 36.9452 43.8007C37.0213 43.8539 37.1072 43.8914 37.1979 43.9112C37.2886 43.931 37.3824 43.9326 37.4737 43.9159C37.5651 43.8993 37.6522 43.8647 37.7301 43.8142C37.808 43.7637 37.8752 43.6983 37.9277 43.6217L43.2708 35.9685C43.3237 35.8928 43.3611 35.8074 43.381 35.7172C43.4009 35.627 43.4028 35.5338 43.3866 35.4429C43.3704 35.352 43.3365 35.2651 43.2868 35.1873C43.2371 35.1095 43.1725 35.0422 43.0968 34.9894Z" fill="#F0811F"/>
<path d="M44.913 38.799C44.7555 38.699 44.5648 38.6657 44.3829 38.7064C44.2009 38.747 44.0425 38.8583 43.9425 39.0157L40.9945 43.6598C40.9449 43.7377 40.9112 43.8247 40.8953 43.9156C40.8794 44.0066 40.8815 44.0998 40.9016 44.19C40.9217 44.2801 40.9594 44.3654 41.0124 44.441C41.0655 44.5166 41.1329 44.581 41.2109 44.6305C41.2889 44.6801 41.3758 44.7138 41.4668 44.7297C41.5577 44.7456 41.651 44.7435 41.7411 44.7234C41.8313 44.7033 41.9166 44.6656 41.9922 44.6126C42.0678 44.5595 42.1321 44.4921 42.1817 44.4141L45.1296 39.77C45.1792 39.692 45.2129 39.605 45.2289 39.514C45.2448 39.423 45.2427 39.3297 45.2226 39.2395C45.2024 39.1494 45.1647 39.064 45.1116 38.9884C45.0585 38.9128 44.991 38.8484 44.913 38.799Z" fill="#F0811F"/>
</svg>
