<svg width="47" height="60" viewBox="0 0 47 60" fill="none" xmlns="http://www.w3.org/2000/svg">
<path d="M34.2628 1.87875H13.3149C13.33 1.44387 13.1913 1.0166 12.9115 0.67207C12.5647 0.244922 12.0503 0 11.5001 0H9.30916C7.56951 0 6.04772 1.23574 5.69076 2.93836L1.51385 22.8584C1.34264 23.675 1.54608 24.5149 2.07213 25.1627C2.59818 25.8105 3.37842 26.182 4.21291 26.182H6.4533L0.0593174 56.6764C-0.111894 57.4931 0.091544 58.333 0.617599 58.9808C1.14365 59.6285 1.92389 60 2.75838 60H9.94853C11.9473 60 13.7149 58.7259 14.3471 56.8297L21.7447 34.6364H25.5879C26.3713 34.6364 27.1203 34.3016 27.6427 33.7179C28.1651 33.1342 28.4152 32.3528 28.3287 31.5742L27.7295 26.1819H32.3839C34.9404 26.1819 37.0203 24.102 37.0203 21.5455V4.63641C37.0205 3.1159 35.7835 1.87875 34.2628 1.87875ZM35.2627 15.9696H34.2628C33.7115 15.9696 33.263 15.521 33.263 14.9696V9.3334C33.263 8.78203 33.7116 8.33355 34.2628 8.33355H35.2627V15.9696ZM13.9022 52.6058H11.0719C10.7466 52.6058 10.4509 52.4544 10.2607 52.1906C10.0705 51.9268 10.0205 51.5984 10.1234 51.2898L14.3921 38.4836C14.7845 37.3063 15.882 36.5153 17.123 36.5153H19.2658L13.9022 52.6058ZM26.5818 31.7684C26.6135 32.0548 26.5253 32.3309 26.333 32.5457C26.1407 32.7605 25.8762 32.8787 25.588 32.8787H22.3308L24.563 26.182H25.961L26.5818 31.7684ZM32.3841 24.4241H11.7175C11.2321 24.4241 10.8386 24.8176 10.8386 25.303C10.8386 25.7884 11.2321 26.1819 11.7175 26.1819H22.7101L19.8517 34.7573H17.123C15.1241 34.7573 13.3565 36.0314 12.7245 37.9276L8.45568 50.734C8.17197 51.5851 8.31014 52.4906 8.83467 53.2185C9.35932 53.9462 10.1747 54.3636 11.0718 54.3636H13.3162L12.6795 56.2738C12.2871 57.4512 11.1896 58.2422 9.94853 58.2422H2.75838C2.4558 58.2422 2.17291 58.1075 1.98213 57.8727C1.79147 57.6377 1.71764 57.3332 1.77963 57.0372L11.9412 8.57449C12.0408 8.09941 11.7365 7.63359 11.2614 7.53398C10.7863 7.43438 10.3205 7.73883 10.2209 8.21379L6.82197 24.4242H4.21291C3.91033 24.4242 3.62744 24.2896 3.43666 24.0546C3.246 23.8198 3.17217 23.5152 3.23416 23.2192L7.41096 3.29918C7.59834 2.40598 8.3965 1.75781 9.30904 1.75781H11.5C11.5087 1.75781 11.5288 1.75781 11.547 1.7802C11.5651 1.80258 11.561 1.82227 11.5592 1.8307L11.0086 4.45617C10.909 4.93125 11.2133 5.39707 11.6884 5.49668C12.1631 5.59617 12.6293 5.29184 12.7289 4.81687L12.9764 3.63656H34.2626C34.814 3.63656 35.2624 4.08516 35.2624 4.63641V6.57562H34.2626C32.742 6.57562 31.5049 7.81277 31.5049 9.33328V14.9696C31.5049 16.4903 32.7421 17.7274 34.2626 17.7274H35.2624V21.5455C35.2627 23.1328 33.9714 24.4241 32.3841 24.4241Z" fill="#F0811F"/>
<path d="M39.8984 13.1515C39.413 13.1515 39.0195 13.5451 39.0195 14.0304C39.0195 14.5158 39.413 14.9094 39.8984 14.9094C41.4191 14.9094 42.6561 13.6722 42.6561 12.1517C42.6561 10.6312 41.4189 9.39404 39.8984 9.39404C39.413 9.39404 39.0195 9.78756 39.0195 10.2729C39.0195 10.7583 39.413 11.1519 39.8984 11.1519C40.4498 11.1519 40.8983 11.6004 40.8983 12.1517C40.8983 12.7029 40.4497 13.1515 39.8984 13.1515Z" fill="#F0811F"/>
<path d="M39.8984 5.63623C39.413 5.63623 39.0195 6.02975 39.0195 6.51514C39.0195 7.00053 39.413 7.39404 39.8984 7.39404C42.5217 7.39404 44.6559 9.52814 44.6559 12.1515C44.6559 14.7749 42.5217 16.909 39.8984 16.909C39.413 16.909 39.0195 17.3025 39.0195 17.7879C39.0195 18.2733 39.413 18.6668 39.8984 18.6668C43.4909 18.6668 46.4137 15.744 46.4137 12.1515C46.4137 8.559 43.4909 5.63623 39.8984 5.63623Z" fill="#F0811F"/>
</svg>
