<svg width="333" height="237" viewBox="0 0 333 237" fill="none" xmlns="http://www.w3.org/2000/svg">
<path d="M126.351 17V15.86H121.431L124.026 13.3175C125.323 12.0425 126.313 10.8425 126.313 9.3725C126.313 7.655 125.083 6.29 123.058 6.29C121.603 6.29 120.411 7.085 119.758 8.4425L120.748 8.9225C121.183 8.075 121.963 7.4525 122.983 7.4525C124.303 7.4525 125.068 8.27 125.068 9.425C125.068 10.355 124.348 11.3675 123.118 12.5825L119.578 16.055V17H126.351ZM133.765 17V6.4625H132.662L130.667 7.3625V8.5775L132.527 7.7675V17H133.765ZM140.386 17.1725C142.944 17.1725 144.759 15.14 144.759 11.7275C144.759 8.315 142.944 6.29 140.386 6.29C137.829 6.29 136.014 8.315 136.014 11.7275C136.014 15.14 137.829 17.1725 140.386 17.1725ZM140.386 15.98C138.564 15.98 137.266 14.45 137.266 11.735C137.266 9.0125 138.564 7.475 140.386 7.475C142.216 7.475 143.514 9.0125 143.514 11.735C143.514 14.45 142.216 15.98 140.386 15.98ZM150.625 17.1725C153.183 17.1725 154.998 15.14 154.998 11.7275C154.998 8.315 153.183 6.29 150.625 6.29C148.068 6.29 146.253 8.315 146.253 11.7275C146.253 15.14 148.068 17.1725 150.625 17.1725ZM150.625 15.98C148.803 15.98 147.505 14.45 147.505 11.735C147.505 9.0125 148.803 7.475 150.625 7.475C152.455 7.475 153.753 9.0125 153.753 11.735C153.753 14.45 152.455 15.98 150.625 15.98ZM160.889 17L161.632 10.55L164.219 17H165.179L167.767 10.5425L168.494 17H169.672L168.689 8.765H167.332L164.699 15.3725L162.044 8.765H160.702L159.719 17H160.889ZM171.465 17L172.208 10.55L174.795 17H175.755L178.343 10.5425L179.07 17H180.248L179.265 8.765H177.908L175.275 15.3725L172.62 8.765H171.278L170.295 17H171.465Z" fill="#35393F"/>
<line x1="200" y1="11.5" x2="300" y2="11.5" stroke="#F0811F"/>
<line x1="299.5" y1="7" x2="299.5" y2="16" stroke="#F0811F"/>
<line y1="11.5" x2="100" y2="11.5" stroke="#F0811F"/>
<line x1="0.5" y1="7" x2="0.5" y2="16" stroke="#F0811F"/>
<g clip-path="url(#clip0)">
<path d="M0.392578 33.3921L16.0994 49.0844V220.915L0.392578 236.607V33.3921ZM299.607 33.3921L283.9 49.0844V220.915L299.607 236.607V33.3921ZM0.392578 33.3921L16.0994 49.0844H283.9L299.607 33.3921H0.392578ZM299.607 236.607L283.9 220.915H16.0994L0.392578 236.607H299.607ZM12.958 224.054L16.0994 220.915V49.0844L12.958 45.9459V224.054ZM287.042 45.9459L283.9 49.0844V220.915L287.042 224.054V45.9459ZM12.958 45.9459L16.0994 49.0844H283.9L287.042 45.9459H12.958ZM287.042 224.054L283.9 220.915H16.0994L12.958 224.054H287.042ZM12.958 224.054L16.0994 220.915V49.0844L12.958 45.9459V224.054Z" fill="white" stroke="#858F98" stroke-miterlimit="10"/>
<rect x="119" y="56" width="62" height="157" fill="#E5E5E5"/>
<path d="M188.09 49.0848L191.231 45.9463H204.582L207.723 49.0848V220.916L204.582 224.054H191.231L188.09 220.916V49.0848ZM191.231 224.054V45.9463V224.054ZM204.582 224.054V45.9463V224.054Z" fill="white"/>
<path d="M204.582 224.054V45.9463M188.09 49.0848L191.231 45.9463H204.582L207.723 49.0848V220.916L204.582 224.054H191.231L188.09 220.916V49.0848ZM191.231 224.054V45.9463V224.054Z" stroke="#858F98" stroke-miterlimit="10" stroke-linecap="round" stroke-linejoin="round"/>
<path d="M92.2773 49.0848L95.4187 45.9463H108.769L111.911 49.0848V220.916L108.769 224.054H95.4187L92.2773 220.916V49.0848ZM95.4187 224.054V45.9463V224.054ZM108.769 224.054V45.9463V224.054Z" fill="white"/>
<path d="M108.769 224.054V45.9463M92.2773 49.0848L95.4187 45.9463H108.769L111.911 49.0848V220.916L108.769 224.054H95.4187L92.2773 220.916V49.0848ZM95.4187 224.054V45.9463V224.054Z" stroke="#858F98" stroke-miterlimit="10" stroke-linecap="round" stroke-linejoin="round"/>
<path d="M104.844 42.0229L118.98 56.146V213.069L104.844 227.977V42.0229ZM195.158 42.0229L181.022 56.146V213.069L195.158 227.977V42.0229ZM181.022 56.146L195.158 42.0229H104.844L118.98 56.146H181.022ZM118.98 213.069L104.844 227.977H195.158L181.022 213.069H118.98ZM115.839 216.208H184.163H115.839ZM116.231 53.0076H184.556H116.231ZM184.163 53.0076V216.208V53.0076ZM115.839 53.3999V216.6V53.3999Z" fill="white"/>
<path d="M115.839 53.3999V216.6M104.844 42.0229L118.98 56.146V213.069L104.844 227.977V42.0229ZM195.158 42.0229L181.022 56.146V213.069L195.158 227.977V42.0229ZM181.022 56.146L195.158 42.0229H104.844L118.98 56.146H181.022ZM118.98 213.069L104.844 227.977H195.158L181.022 213.069H118.98ZM115.839 216.208H184.163H115.839ZM116.231 53.0076H184.556H116.231ZM184.163 53.0076V216.208V53.0076Z" stroke="#858F98" stroke-miterlimit="10" stroke-linejoin="round"/>
<path d="M108.77 144.023H107.985C107.592 144.023 107.199 143.631 107.199 143.238V129.9C107.199 129.508 107.592 129.115 107.985 129.115H112.697C113.089 129.115 113.482 129.508 113.482 129.9V143.238C113.482 143.631 113.089 144.023 112.697 144.023H111.911V134.608C111.911 133.744 111.204 133.038 110.341 133.038C109.477 133.038 108.77 133.744 108.77 134.608V144.023ZM110.341 158.931C111.204 158.931 111.911 158.224 111.911 157.361V134.608C111.911 133.744 111.204 133.038 110.341 133.038C109.477 133.038 108.77 133.744 108.77 134.608V157.361C108.77 158.224 109.477 158.931 110.341 158.931Z" fill="white" stroke="#858F98" stroke-miterlimit="10"/>
<path d="M197.122 62.4231H196.336C195.708 62.4231 195.158 61.8739 195.158 61.2462V45.5539C195.158 44.9262 195.708 44.377 196.336 44.377H197.122C197.75 44.377 198.3 44.9262 198.3 45.5539V61.2462C198.3 61.8739 197.75 62.4231 197.122 62.4231ZM198.3 48.3H195.158V58.5H198.3V48.3Z" fill="white" stroke="#858F98" stroke-miterlimit="10"/>
<path d="M197.122 225.623H196.336C195.708 225.623 195.158 225.074 195.158 224.446V208.754C195.158 208.126 195.708 207.577 196.336 207.577H197.122C197.75 207.577 198.3 208.126 198.3 208.754V224.446C198.3 225.074 197.75 225.623 197.122 225.623ZM198.3 211.5H195.158V221.7H198.3V211.5Z" fill="white" stroke="#858F98" stroke-miterlimit="10"/>
</g>
<path d="M327 163.351L316.462 163.351L316.462 164.454L317.362 166.449L318.577 166.449L317.767 164.589L327 164.589L327 163.351ZM327 151.47L325.012 151.47L325.012 150.053L323.895 150.053L323.895 151.47L316.462 151.47L316.462 152.415L323.985 157.86L325.012 157.86L325.012 152.633L327 152.633L327 151.47ZM318.495 152.633L323.895 152.633L323.895 156.495L318.495 152.633ZM327.172 144.586C327.172 142.029 325.14 140.214 321.727 140.214C318.315 140.214 316.29 142.029 316.29 144.586C316.29 147.144 318.315 148.959 321.727 148.959C325.14 148.959 327.172 147.144 327.172 144.586ZM325.98 144.586C325.98 146.409 324.45 147.706 321.735 147.706C319.012 147.706 317.475 146.409 317.475 144.586C317.475 142.756 319.012 141.459 321.735 141.459C324.45 141.459 325.98 142.756 325.98 144.586ZM327.172 134.347C327.172 131.79 325.14 129.975 321.727 129.975C318.315 129.975 316.29 131.79 316.29 134.347C316.29 136.905 318.315 138.72 321.727 138.72C325.14 138.72 327.172 136.905 327.172 134.347ZM325.98 134.347C325.98 136.17 324.45 137.467 321.735 137.467C319.012 137.467 317.475 136.17 317.475 134.347C317.475 132.517 319.012 131.22 321.735 131.22C324.45 131.22 325.98 132.517 325.98 134.347ZM327 124.083L320.55 123.341L327 120.753L327 119.793L320.542 117.206L327 116.478L327 115.301L318.765 116.283L318.765 117.641L325.372 120.273L318.765 122.928L318.765 124.271L327 125.253L327 124.083ZM327 113.507L320.55 112.765L327 110.177L327 109.217L320.542 106.63L327 105.902L327 104.725L318.765 105.707L318.765 107.065L325.372 109.697L318.765 112.352L318.765 113.695L327 114.677L327 113.507Z" fill="#35393F"/>
<line x1="322.5" y1="93" x2="322.5" y2="33" stroke="#F0811F"/>
<line x1="318" y1="33.5" x2="327" y2="33.5" stroke="#F0811F"/>
<line x1="322.5" y1="237" x2="322.5" y2="177" stroke="#F0811F"/>
<line x1="318" y1="236.5" x2="327" y2="236.5" stroke="#F0811F"/>
<defs>
<clipPath id="clip0">
<rect width="300" height="204" fill="white" transform="translate(0 33)"/>
</clipPath>
</defs>
</svg>
