<svg width="280" height="326" viewBox="0 0 280 326" fill="none" xmlns="http://www.w3.org/2000/svg">
<path d="M112.463 17V6.4625H111.361L109.366 7.3625V8.5775L111.226 7.7675V17H112.463ZM121.202 17.1875C123.272 17.1875 124.72 15.7625 124.72 13.8125C124.72 12.2225 123.602 10.595 121.397 10.7075L124.127 7.595V6.4625H118.345V7.625H122.65L120.025 10.73V11.6525H120.58C122.417 11.6525 123.475 12.29 123.475 13.775C123.475 15.1175 122.53 16.07 121.142 16.07C120.077 16.07 119.23 15.425 118.757 14.57L117.76 15.0425C118.39 16.2875 119.665 17.1875 121.202 17.1875ZM130.599 17.1725C133.156 17.1725 134.971 15.14 134.971 11.7275C134.971 8.315 133.156 6.29 130.599 6.29C128.041 6.29 126.226 8.315 126.226 11.7275C126.226 15.14 128.041 17.1725 130.599 17.1725ZM130.599 15.98C128.776 15.98 127.479 14.45 127.479 11.735C127.479 9.0125 128.776 7.475 130.599 7.475C132.429 7.475 133.726 9.0125 133.726 11.735C133.726 14.45 132.429 15.98 130.599 15.98ZM140.838 17.1725C143.395 17.1725 145.21 15.14 145.21 11.7275C145.21 8.315 143.395 6.29 140.838 6.29C138.28 6.29 136.465 8.315 136.465 11.7275C136.465 15.14 138.28 17.1725 140.838 17.1725ZM140.838 15.98C139.015 15.98 137.718 14.45 137.718 11.735C137.718 9.0125 139.015 7.475 140.838 7.475C142.668 7.475 143.965 9.0125 143.965 11.735C143.965 14.45 142.668 15.98 140.838 15.98ZM151.102 17L151.844 10.55L154.432 17H155.392L157.979 10.5425L158.707 17H159.884L158.902 8.765H157.544L154.912 15.3725L152.257 8.765H150.914L149.932 17H151.102ZM161.678 17L162.42 10.55L165.008 17H165.968L168.555 10.5425L169.283 17H170.46L169.478 8.765H168.12L165.488 15.3725L162.833 8.765H161.49L160.508 17H161.678Z" fill="#35393F"/>
<line x1="182" y1="11.5" x2="242" y2="11.5" stroke="#F0811F"/>
<line x1="241.5" y1="7" x2="241.5" y2="16" stroke="#F0811F"/>
<line x1="38" y1="11.5" x2="98" y2="11.5" stroke="#F0811F"/>
<line x1="38.5" y1="7" x2="38.5" y2="16" stroke="#F0811F"/>
<path d="M274 163.351L263.462 163.351L263.462 164.454L264.362 166.449L265.577 166.449L264.767 164.589L274 164.589L274 163.351ZM274 151.47L272.012 151.47L272.012 150.053L270.895 150.053L270.895 151.47L263.462 151.47L263.462 152.415L270.985 157.86L272.012 157.86L272.012 152.633L274 152.633L274 151.47ZM265.495 152.633L270.895 152.633L270.895 156.495L265.495 152.633ZM274.172 144.586C274.172 142.029 272.14 140.214 268.727 140.214C265.315 140.214 263.29 142.029 263.29 144.586C263.29 147.144 265.315 148.959 268.727 148.959C272.14 148.959 274.172 147.144 274.172 144.586ZM272.98 144.586C272.98 146.409 271.45 147.706 268.735 147.706C266.012 147.706 264.475 146.409 264.475 144.586C264.475 142.756 266.012 141.459 268.735 141.459C271.45 141.459 272.98 142.756 272.98 144.586ZM274.172 134.347C274.172 131.79 272.14 129.975 268.727 129.975C265.315 129.975 263.29 131.79 263.29 134.347C263.29 136.905 265.315 138.72 268.727 138.72C272.14 138.72 274.172 136.905 274.172 134.347ZM272.98 134.347C272.98 136.17 271.45 137.467 268.735 137.467C266.012 137.467 264.475 136.17 264.475 134.347C264.475 132.517 266.012 131.22 268.735 131.22C271.45 131.22 272.98 132.517 272.98 134.347ZM274 124.083L267.55 123.341L274 120.753L274 119.793L267.542 117.206L274 116.478L274 115.301L265.765 116.283L265.765 117.641L272.372 120.273L265.765 122.928L265.765 124.271L274 125.253L274 124.083ZM274 113.507L267.55 112.765L274 110.177L274 109.217L267.542 106.63L274 105.902L274 104.725L265.765 105.707L265.765 107.065L272.372 109.697L265.765 112.352L265.765 113.695L274 114.677L274 113.507Z" fill="#35393F"/>
<line x1="269.5" y1="93" x2="269.5" y2="33" stroke="#F0811F"/>
<line x1="265" y1="33.5" x2="274" y2="33.5" stroke="#F0811F"/>
<line x1="269.5" y1="237" x2="269.5" y2="177" stroke="#F0811F"/>
<line x1="265" y1="236.5" x2="274" y2="236.5" stroke="#F0811F"/>
<g clip-path="url(#clip0)">
<path d="M45.9347 313.073L33.3926 325.608V33.3916L45.9347 45.9264V313.073ZM140.001 33.3916L128.242 45.9264V313.073L140.001 325.608V33.3916ZM140.001 33.3916H33.3926L45.9347 45.9264H128.242L140.001 33.3916ZM128.242 313.073H45.9347L33.3926 325.608H140.001L128.242 313.073ZM125.107 309.94H49.0702L45.9347 313.073H128.242L125.107 309.94ZM128.242 45.9264H45.9347L49.0702 49.0601H125.107L128.242 45.9264ZM49.0702 49.0601L45.9347 45.9264V313.073L49.0702 309.94V49.0601ZM128.242 45.9264L125.107 49.0601V309.94L128.242 313.073V45.9264Z" fill="white" stroke="#858F98" stroke-miterlimit="10" stroke-linecap="round" stroke-linejoin="round"/>
<rect x="56.0781" y="56.0215" width="61.8922" height="245.911" fill="#E5E5E5"/>
<path d="M42.0156 42.0093L52.99 52.9772V305.239L42.0156 316.991V42.0093ZM132.162 42.0093L121.188 52.9772V305.239L132.162 316.991V42.0093ZM42.0156 42.0093L52.99 52.9772H121.188L132.162 42.0093H42.0156ZM132.162 316.991L121.188 305.239H52.99L42.0156 316.991H132.162ZM52.99 52.9772L56.1255 56.1109H118.052L121.188 52.9772H52.99ZM121.188 305.239L118.052 302.106H56.1255L52.99 305.239H121.188ZM52.99 305.239L56.1255 302.106V56.1109L52.99 52.9772V305.239ZM121.188 52.9772L118.052 56.1109V302.106L121.188 305.239V52.9772Z" fill="white" stroke="#858F98" stroke-miterlimit="10" stroke-linecap="round" stroke-linejoin="round"/>
<path d="M52.9883 223.764H121.186V233.165H52.9883V223.764ZM118.051 236.298L121.186 233.165H52.9883L56.1238 236.298H118.051ZM56.1238 220.63L52.9883 223.764H121.186L118.051 220.63H56.1238Z" fill="white" stroke="#858F98" stroke-miterlimit="10" stroke-linejoin="round"/>
<path d="M125.107 189.293H124.323C123.931 189.293 123.539 188.901 123.539 188.509V175.191C123.539 174.799 123.931 174.408 124.323 174.408H129.026C129.418 174.408 129.81 174.799 129.81 175.191V188.509C129.81 188.901 129.418 189.293 129.026 189.293H128.242V179.892C128.242 179.03 127.537 178.325 126.675 178.325C125.812 178.325 125.107 179.03 125.107 179.892V189.293ZM126.675 204.178C127.537 204.178 128.242 203.473 128.242 202.611V179.892C128.242 179.03 127.537 178.325 126.675 178.325C125.812 178.325 125.107 179.03 125.107 179.892V202.611C125.107 203.473 125.812 204.178 126.675 204.178Z" fill="white" stroke="#858F98" stroke-miterlimit="10"/>
<path d="M40.8386 64.7287H40.0547C39.4276 64.7287 38.8789 64.1803 38.8789 63.5535V47.8851C38.8789 47.2584 39.4276 46.71 40.0547 46.71H40.8386C41.4657 46.71 42.0144 47.2584 42.0144 47.8851V63.5535C42.0144 64.1803 41.4657 64.7287 40.8386 64.7287ZM42.0144 50.6271H38.8789V60.8116H42.0144V50.6271Z" fill="white" stroke="#858F98" stroke-miterlimit="10"/>
<path d="M40.8386 312.29H40.0547C39.4276 312.29 38.8789 311.742 38.8789 311.115V295.447C38.8789 294.82 39.4276 294.271 40.0547 294.271H40.8386C41.4657 294.271 42.0144 294.82 42.0144 295.447V311.115C42.0144 311.742 41.4657 312.29 40.8386 312.29ZM42.0144 298.189H38.8789V308.373H42.0144V298.189Z" fill="white" stroke="#858F98" stroke-miterlimit="10"/>
<path d="M152.542 223.763L140 236.298V33.3916L152.542 45.9264V223.763ZM246.608 33.3916L234.85 45.9264V223.763L246.608 236.298V33.3916ZM246.608 33.3916H140L152.542 45.9264H234.85L246.608 33.3916ZM234.85 223.763H152.542L140 236.298H246.608L234.85 223.763ZM231.714 220.63H155.678L152.542 223.763H234.85L231.714 220.63ZM234.85 45.9264H152.542L155.678 49.0601H231.714L234.85 45.9264ZM155.678 49.0601L152.542 45.9264V223.763L155.678 220.63V49.0601ZM234.85 45.9264L231.714 49.0601V220.63L234.85 223.763V45.9264Z" fill="white" stroke="#858F98" stroke-miterlimit="10" stroke-linecap="round" stroke-linejoin="round"/>
<path d="M56.5156 56.5024L116.875 178.716" stroke="#858F98" stroke-miterlimit="10"/>
<path d="M116.875 178.716L56.5156 300.93" stroke="#858F98" stroke-miterlimit="10"/>
</g>
<path d="M17 203.649L15.86 203.649L15.86 208.569L13.3175 205.974C12.0425 204.677 10.8425 203.687 9.3725 203.687C7.655 203.687 6.29 204.917 6.29 206.942C6.29 208.397 7.085 209.589 8.4425 210.242L8.9225 209.252C8.075 208.817 7.4525 208.037 7.4525 207.017C7.4525 205.697 8.27 204.932 9.425 204.932C10.355 204.932 11.3675 205.652 12.5825 206.882L16.055 210.422L17 210.422L17 203.649ZM17 196.235L6.4625 196.235L6.4625 197.338L7.3625 199.333L8.5775 199.333L7.7675 197.473L17 197.473L17 196.235ZM17.1725 189.614C17.1725 187.056 15.14 185.241 11.7275 185.241C8.315 185.241 6.29 187.056 6.29 189.614C6.29 192.171 8.315 193.986 11.7275 193.986C15.14 193.986 17.1725 192.171 17.1725 189.614ZM15.98 189.614C15.98 191.436 14.45 192.734 11.735 192.734C9.0125 192.734 7.475 191.436 7.475 189.614C7.475 187.784 9.0125 186.486 11.735 186.486C14.45 186.486 15.98 187.784 15.98 189.614ZM17.1725 179.375C17.1725 176.817 15.14 175.002 11.7275 175.002C8.315 175.002 6.29 176.817 6.29 179.375C6.29 181.932 8.315 183.747 11.7275 183.747C15.14 183.747 17.1725 181.932 17.1725 179.375ZM15.98 179.375C15.98 181.197 14.45 182.495 11.735 182.495C9.0125 182.495 7.475 181.197 7.475 179.375C7.475 177.545 9.0125 176.247 11.735 176.247C14.45 176.247 15.98 177.545 15.98 179.375ZM17 169.111L10.55 168.368L17 165.781L17 164.821L10.5425 162.233L17 161.506L17 160.328L8.765 161.311L8.765 162.668L15.3725 165.301L8.765 167.956L8.765 169.298L17 170.281L17 169.111ZM17 158.535L10.55 157.792L17 155.205L17 154.245L10.5425 151.657L17 150.93L17 149.752L8.765 150.735L8.765 152.092L15.3725 154.725L8.765 157.38L8.765 158.722L17 159.705L17 158.535Z" fill="#35393F"/>
<line x1="12.5" y1="133" x2="12.5" y2="33" stroke="#F0811F"/>
<line x1="8" y1="32.5" x2="17" y2="32.5" stroke="#F0811F"/>
<line x1="12.5" y1="326" x2="12.5" y2="226" stroke="#F0811F"/>
<line x1="8" y1="325.5" x2="17" y2="325.5" stroke="#F0811F"/>
<defs>
<clipPath id="clip0">
<rect width="214" height="293" fill="white" transform="translate(33 33)"/>
</clipPath>
</defs>
</svg>
