<svg width="237" height="237" viewBox="0 0 237 237" fill="none" xmlns="http://www.w3.org/2000/svg">
<g clip-path="url(#clip0)">
<path d="M203.608 236.607H0.392578V33.3921H203.608V236.607ZM191.054 45.9459H12.9464V224.054H191.054V45.9459ZM0.784886 33.7844L12.9464 45.9459L0.784886 33.7844ZM12.9464 224.054L0.784886 236.215L12.9464 224.054ZM190.662 223.661L203.216 236.215L190.662 223.661ZM190.662 46.3382L203.216 33.7844L190.662 46.3382ZM191.054 45.9459V224.054V45.9459ZM12.9464 224.054H191.054V45.9459H12.9464V224.054ZM16.0849 49.0844H187.916V220.915H16.0849V49.0844ZM16.4772 49.4767L13.3387 46.3382L16.4772 49.4767ZM191.054 45.9459L187.523 49.4767L191.054 45.9459ZM16.4772 220.523L13.3387 223.661L16.4772 220.523ZM187.523 220.523L191.054 224.054L187.523 220.523Z" fill="white"/>
<path d="M187.523 220.523L191.054 224.054M203.608 236.607H0.392578V33.3921H203.608V236.607ZM191.054 45.9459H12.9464V224.054H191.054V45.9459ZM0.784886 33.7844L12.9464 45.9459L0.784886 33.7844ZM12.9464 224.054L0.784886 236.215L12.9464 224.054ZM190.662 223.661L203.216 236.215L190.662 223.661ZM190.662 46.3382L203.216 33.7844L190.662 46.3382ZM191.054 45.9459V224.054V45.9459ZM12.9464 224.054H191.054V45.9459H12.9464V224.054ZM16.0849 49.0844H187.916V220.915H16.0849V49.0844ZM16.4772 49.4767L13.3387 46.3382L16.4772 49.4767ZM191.054 45.9459L187.523 49.4767L191.054 45.9459ZM16.4772 220.523L13.3387 223.661L16.4772 220.523Z" stroke="#858F98" stroke-miterlimit="10"/>
<rect x="119" y="56" width="62" height="157" fill="#E5E5E5"/>
<path d="M92.1914 49.0848L95.3299 45.9463H108.668L111.807 49.0848V220.916L108.668 224.054H95.3299L92.1914 220.916V49.0848ZM95.3299 224.054V45.9463V224.054ZM108.668 224.054V45.9463V224.054Z" fill="white"/>
<path d="M108.668 224.054V45.9463M92.1914 49.0848L95.3299 45.9463H108.668L111.807 49.0848V220.916L108.668 224.054H95.3299L92.1914 220.916V49.0848ZM95.3299 224.054V45.9463V224.054Z" stroke="#858F98" stroke-miterlimit="10" stroke-linecap="round" stroke-linejoin="round"/>
<path d="M104.746 42.0229L118.869 56.146V213.069L104.746 227.977V42.0229ZM194.977 42.0229L180.854 56.146V213.069L194.977 227.977V42.0229ZM180.854 56.146L194.977 42.0229H104.746L118.869 56.146H180.854ZM118.869 213.069L104.746 227.977H194.977L180.854 213.069H118.869ZM115.731 216.208H183.992H115.731ZM116.123 53.0076H184.385H116.123ZM183.992 53.0076V216.208V53.0076ZM115.731 53.3999V216.6V53.3999Z" fill="white"/>
<path d="M115.731 53.3999V216.6M104.746 42.0229L118.869 56.146V213.069L104.746 227.977V42.0229ZM194.977 42.0229L180.854 56.146V213.069L194.977 227.977V42.0229ZM180.854 56.146L194.977 42.0229H104.746L118.869 56.146H180.854ZM118.869 213.069L104.746 227.977H194.977L180.854 213.069H118.869ZM115.731 216.208H183.992H115.731ZM116.123 53.0076H184.385H116.123ZM183.992 53.0076V216.208V53.0076Z" stroke="#858F98" stroke-miterlimit="10" stroke-linejoin="round"/>
<path d="M108.669 144.023H107.884C107.492 144.023 107.1 143.631 107.1 143.238V129.9C107.1 129.508 107.492 129.115 107.884 129.115H112.592C112.984 129.115 113.377 129.508 113.377 129.9V143.238C113.377 143.631 112.984 144.023 112.592 144.023H111.807V134.608C111.807 133.744 111.101 133.038 110.238 133.038C109.375 133.038 108.669 133.744 108.669 134.608V144.023ZM110.238 158.931C111.101 158.931 111.807 158.224 111.807 157.361V134.608C111.807 133.744 111.101 133.038 110.238 133.038C109.375 133.038 108.669 133.744 108.669 134.608V157.361C108.669 158.224 109.375 158.931 110.238 158.931Z" fill="white" stroke="#858F98" stroke-miterlimit="10"/>
<path d="M196.938 62.4231H196.153C195.526 62.4231 194.977 61.8739 194.977 61.2462V45.5539C194.977 44.9262 195.526 44.377 196.153 44.377H196.938C197.566 44.377 198.115 44.9262 198.115 45.5539V61.2462C198.115 61.8739 197.566 62.4231 196.938 62.4231ZM198.115 48.3H194.977V58.5H198.115V48.3Z" fill="white" stroke="#858F98" stroke-miterlimit="10"/>
<path d="M196.938 225.623H196.153C195.526 225.623 194.977 225.074 194.977 224.446V208.754C194.977 208.126 195.526 207.577 196.153 207.577H196.938C197.566 207.577 198.115 208.126 198.115 208.754V224.446C198.115 225.074 197.566 225.623 196.938 225.623ZM198.115 211.5H194.977V221.7H198.115V211.5Z" fill="white" stroke="#858F98" stroke-miterlimit="10"/>
<path d="M180.462 211.892L119.654 134.215M180.462 56.5386L119.262 134.608L180.462 56.5386Z" stroke="#858F98" stroke-miterlimit="10"/>
</g>
<path d="M74.4635 17V6.4625H73.361L71.366 7.3625V8.5775L73.226 7.7675V17H74.4635ZM83.202 17.1875C85.272 17.1875 86.7195 15.7625 86.7195 13.8125C86.7195 12.2225 85.602 10.595 83.397 10.7075L86.127 7.595V6.4625H80.3445V7.625H84.6495L82.0245 10.73V11.6525H82.5795C84.417 11.6525 85.4745 12.29 85.4745 13.775C85.4745 15.1175 84.5295 16.07 83.142 16.07C82.077 16.07 81.2295 15.425 80.757 14.57L79.7595 15.0425C80.3895 16.2875 81.6645 17.1875 83.202 17.1875ZM92.5986 17.1725C95.1561 17.1725 96.9711 15.14 96.9711 11.7275C96.9711 8.315 95.1561 6.29 92.5986 6.29C90.0411 6.29 88.2261 8.315 88.2261 11.7275C88.2261 15.14 90.0411 17.1725 92.5986 17.1725ZM92.5986 15.98C90.7761 15.98 89.4786 14.45 89.4786 11.735C89.4786 9.0125 90.7761 7.475 92.5986 7.475C94.4286 7.475 95.7261 9.0125 95.7261 11.735C95.7261 14.45 94.4286 15.98 92.5986 15.98ZM102.838 17.1725C105.395 17.1725 107.21 15.14 107.21 11.7275C107.21 8.315 105.395 6.29 102.838 6.29C100.28 6.29 98.4653 8.315 98.4653 11.7275C98.4653 15.14 100.28 17.1725 102.838 17.1725ZM102.838 15.98C101.015 15.98 99.7178 14.45 99.7178 11.735C99.7178 9.0125 101.015 7.475 102.838 7.475C104.668 7.475 105.965 9.0125 105.965 11.735C105.965 14.45 104.668 15.98 102.838 15.98ZM113.102 17L113.844 10.55L116.432 17H117.392L119.979 10.5425L120.707 17H121.884L120.902 8.765H119.544L116.912 15.3725L114.257 8.765H112.914L111.932 17H113.102ZM123.678 17L124.42 10.55L127.008 17H127.968L130.555 10.5425L131.283 17H132.46L131.478 8.765H130.12L127.488 15.3725L124.833 8.765H123.49L122.508 17H123.678Z" fill="#35393F"/>
<line x1="144" y1="11.5" x2="204" y2="11.5" stroke="#F0811F"/>
<line x1="203.5" y1="7" x2="203.5" y2="16" stroke="#F0811F"/>
<line y1="11.5" x2="60" y2="11.5" stroke="#F0811F"/>
<line x1="0.5" y1="7" x2="0.5" y2="16" stroke="#F0811F"/>
<path d="M231 163.351L220.462 163.351L220.462 164.454L221.362 166.449L222.577 166.449L221.767 164.589L231 164.589L231 163.351ZM231 151.47L229.012 151.47L229.012 150.053L227.895 150.053L227.895 151.47L220.462 151.47L220.462 152.415L227.985 157.86L229.012 157.86L229.012 152.633L231 152.633L231 151.47ZM222.495 152.633L227.895 152.633L227.895 156.495L222.495 152.633ZM231.172 144.586C231.172 142.029 229.14 140.214 225.727 140.214C222.315 140.214 220.29 142.029 220.29 144.586C220.29 147.144 222.315 148.959 225.727 148.959C229.14 148.959 231.172 147.144 231.172 144.586ZM229.98 144.586C229.98 146.409 228.45 147.706 225.735 147.706C223.012 147.706 221.475 146.409 221.475 144.586C221.475 142.756 223.012 141.459 225.735 141.459C228.45 141.459 229.98 142.756 229.98 144.586ZM231.172 134.347C231.172 131.79 229.14 129.975 225.727 129.975C222.315 129.975 220.29 131.79 220.29 134.347C220.29 136.905 222.315 138.72 225.727 138.72C229.14 138.72 231.172 136.905 231.172 134.347ZM229.98 134.347C229.98 136.17 228.45 137.467 225.735 137.467C223.012 137.467 221.475 136.17 221.475 134.347C221.475 132.517 223.012 131.22 225.735 131.22C228.45 131.22 229.98 132.517 229.98 134.347ZM231 124.083L224.55 123.341L231 120.753L231 119.793L224.542 117.206L231 116.478L231 115.301L222.765 116.283L222.765 117.641L229.372 120.273L222.765 122.928L222.765 124.271L231 125.253L231 124.083ZM231 113.507L224.55 112.765L231 110.177L231 109.217L224.542 106.63L231 105.902L231 104.725L222.765 105.707L222.765 107.065L229.372 109.697L222.765 112.352L222.765 113.695L231 114.677L231 113.507Z" fill="#35393F"/>
<line x1="226.5" y1="93" x2="226.5" y2="33" stroke="#F0811F"/>
<line x1="222" y1="33.5" x2="231" y2="33.5" stroke="#F0811F"/>
<line x1="226.5" y1="237" x2="226.5" y2="177" stroke="#F0811F"/>
<line x1="222" y1="236.5" x2="231" y2="236.5" stroke="#F0811F"/>
<defs>
<clipPath id="clip0">
<rect width="204" height="204" fill="white" transform="translate(0 33)"/>
</clipPath>
</defs>
</svg>
