<svg width="100" height="100" viewBox="0 0 100 100" fill="none" xmlns="http://www.w3.org/2000/svg">
<path d="M96.875 90.6246H92.1875V53.1246H93.75C94.1644 53.1246 94.5618 52.96 94.8549 52.667C95.1479 52.374 95.3125 51.9765 95.3125 51.5621V46.8746C95.3125 46.4602 95.1479 46.0628 94.8549 45.7698C94.5618 45.4768 94.1644 45.3121 93.75 45.3121H92.1875V20.65L94.6855 21.7438C94.9234 21.848 95.1834 21.8912 95.4422 21.8697C95.701 21.8481 95.9503 21.7624 96.1676 21.6203C96.3849 21.4782 96.5634 21.2842 96.6869 21.0558C96.8104 20.8274 96.8751 20.5718 96.875 20.3121V14.0621C96.8751 13.7584 96.7866 13.4612 96.6205 13.207C96.4543 12.9527 96.2177 12.7524 95.9395 12.6305L70.9395 1.693C70.7416 1.607 70.5282 1.56262 70.3125 1.56262C70.0968 1.56262 69.8834 1.607 69.6855 1.693L44.6855 12.6305C44.4073 12.7524 44.1707 12.9527 44.0045 13.207C43.8384 13.4612 43.7499 13.7584 43.75 14.0621V20.3121C43.7499 20.5718 43.8146 20.8274 43.9381 21.0558C44.0616 21.2842 44.2401 21.4782 44.4574 21.6203C44.6747 21.7624 44.924 21.8481 45.1828 21.8697C45.4416 21.8912 45.7016 21.848 45.9395 21.7438L48.4375 20.65V29.6871H6.25C5.8356 29.6871 5.43817 29.8518 5.14515 30.1448C4.85212 30.4378 4.6875 30.8352 4.6875 31.2496V35.9371C4.6875 36.3515 4.85212 36.749 5.14515 37.042C5.43817 37.335 5.8356 37.4996 6.25 37.4996H10.9375V45.3121H6.25C5.8356 45.3121 5.43817 45.4768 5.14515 45.7698C4.85212 46.0628 4.6875 46.4602 4.6875 46.8746V51.5621C4.6875 51.9765 4.85212 52.374 5.14515 52.667C5.43817 52.96 5.8356 53.1246 6.25 53.1246H7.8125V90.6246H3.125C2.7106 90.6246 2.31317 90.7893 2.02015 91.0823C1.72712 91.3753 1.5625 91.7727 1.5625 92.1871V96.8746C1.5625 97.289 1.72712 97.6865 2.02015 97.9795C2.31317 98.2725 2.7106 98.4371 3.125 98.4371H96.875C97.2894 98.4371 97.6868 98.2725 97.9799 97.9795C98.2729 97.6865 98.4375 97.289 98.4375 96.8746V92.1871C98.4375 91.7727 98.2729 91.3753 97.9799 91.0823C97.6868 90.7893 97.2894 90.6246 96.875 90.6246ZM46.875 17.9235V15.0836L70.3125 4.82972L93.75 15.0836V17.9235L91.2383 16.8239C91.2353 16.8234 91.2326 16.822 91.2305 16.8199L70.9395 7.943C70.7417 7.85669 70.5283 7.81214 70.3125 7.81214C70.0967 7.81214 69.8833 7.85669 69.6855 7.943L49.3945 16.8199C49.3924 16.822 49.3897 16.8234 49.3867 16.8239L46.875 17.9235ZM89.0625 19.2828V45.3121H51.5625V19.2828L70.3125 11.0797L89.0625 19.2828ZM7.8125 34.3746V32.8121H48.4375V34.3746H7.8125ZM48.4375 37.4996V45.3121H42.1875V37.4996H48.4375ZM39.0625 37.4996V45.3121H32.8125V37.4996H39.0625ZM29.6875 37.4996V45.3121H23.4375V37.4996H29.6875ZM20.3125 37.4996V45.3121H14.0625V37.4996H20.3125ZM7.8125 48.4371H92.1875V49.9996H7.8125V48.4371ZM68.75 68.7496H54.6875C54.2731 68.7496 53.8757 68.9143 53.5826 69.2073C53.2896 69.5003 53.125 69.8977 53.125 70.3121V90.6246H51.5625V53.1246H89.0625V90.6246H70.3125V70.3121C70.3125 69.8977 70.1479 69.5003 69.8549 69.2073C69.5618 68.9143 69.1644 68.7496 68.75 68.7496ZM67.1875 71.8746V90.6246H56.25V71.8746H67.1875ZM45.3125 60.9371H14.0625C13.6481 60.9371 13.2507 61.1018 12.9576 61.3948C12.6646 61.6878 12.5 62.0852 12.5 62.4996V67.1871C12.5 67.6015 12.6646 67.999 12.9576 68.292C13.2507 68.585 13.6481 68.7496 14.0625 68.7496V90.6246H10.9375V53.1246H48.4375V90.6246H45.3125V68.7496C45.7269 68.7496 46.1243 68.585 46.4174 68.292C46.7104 67.999 46.875 67.6015 46.875 67.1871V62.4996C46.875 62.0852 46.7104 61.6878 46.4174 61.3948C46.1243 61.1018 45.7269 60.9371 45.3125 60.9371ZM15.625 65.6246V64.0621H43.75V65.6246H15.625ZM42.1875 68.7496V90.6246H17.1875V68.7496H42.1875ZM95.3125 95.3121H4.6875V93.7496H95.3125V95.3121Z" fill="#F0811F"/>
<path d="M73.4375 82.8125H85.9375C86.3519 82.8125 86.7493 82.6479 87.0424 82.3549C87.3354 82.0618 87.5 81.6644 87.5 81.25V70.3125C87.5 69.8981 87.3354 69.5007 87.0424 69.2076C86.7493 68.9146 86.3519 68.75 85.9375 68.75H73.4375C73.0231 68.75 72.6257 68.9146 72.3326 69.2076C72.0396 69.5007 71.875 69.8981 71.875 70.3125V81.25C71.875 81.6644 72.0396 82.0618 72.3326 82.3549C72.6257 82.6479 73.0231 82.8125 73.4375 82.8125ZM75 71.875H84.375V79.6875H75V71.875Z" fill="#F0811F"/>
<path d="M73.4375 35.9375H85.9375C86.3519 35.9375 86.7493 35.7729 87.0424 35.4799C87.3354 35.1868 87.5 34.7894 87.5 34.375V23.4375C87.5 23.0231 87.3354 22.6257 87.0424 22.3326C86.7493 22.0396 86.3519 21.875 85.9375 21.875H73.4375C73.0231 21.875 72.6257 22.0396 72.3326 22.3326C72.0396 22.6257 71.875 23.0231 71.875 23.4375V34.375C71.875 34.7894 72.0396 35.1868 72.3326 35.4799C72.6257 35.7729 73.0231 35.9375 73.4375 35.9375ZM75 25H84.375V32.8125H75V25Z" fill="#F0811F"/>
<path d="M54.6875 35.9375H67.1875C67.6019 35.9375 67.9993 35.7729 68.2924 35.4799C68.5854 35.1868 68.75 34.7894 68.75 34.375V23.4375C68.75 23.0231 68.5854 22.6257 68.2924 22.3326C67.9993 22.0396 67.6019 21.875 67.1875 21.875H54.6875C54.2731 21.875 53.8757 22.0396 53.5826 22.3326C53.2896 22.6257 53.125 23.0231 53.125 23.4375V34.375C53.125 34.7894 53.2896 35.1868 53.5826 35.4799C53.8757 35.7729 54.2731 35.9375 54.6875 35.9375ZM56.25 25H65.625V32.8125H56.25V25Z" fill="#F0811F"/>
<path d="M64.0625 84.375C64.4769 84.375 64.8743 84.2104 65.1674 83.9174C65.4604 83.6243 65.625 83.2269 65.625 82.8125V79.6875C65.625 79.2731 65.4604 78.8757 65.1674 78.5826C64.8743 78.2896 64.4769 78.125 64.0625 78.125C63.6481 78.125 63.2507 78.2896 62.9576 78.5826C62.6646 78.8757 62.5 79.2731 62.5 79.6875V82.8125C62.5 83.2269 62.6646 83.6243 62.9576 83.9174C63.2507 84.2104 63.6481 84.375 64.0625 84.375Z" fill="#F0811F"/>
</svg>
