<svg width="100" height="100" viewBox="0 0 100 100" fill="none" xmlns="http://www.w3.org/2000/svg">
<path d="M91.2617 6.83398H8.3667C7.3877 6.83398 6.5957 7.62698 6.5957 8.60498V91.5C6.5957 92.479 7.3887 93.271 8.3667 93.271H47.7127C48.1827 93.271 48.6337 93.084 48.9657 92.753C49.2977 92.42 49.4847 91.969 49.4847 91.498L49.4737 72.548C60.9367 73.159 67.2237 79.831 67.2237 91.5C67.2237 91.759 67.3107 91.997 67.4527 92.192C67.7227 92.826 68.3497 93.27 69.0827 93.27H91.2617C92.2407 93.27 93.0327 92.478 93.0327 91.499V8.60598C93.0317 7.62698 92.2397 6.83398 91.2617 6.83398ZM15.7137 10.377H43.7967V11.238H15.7137V10.377ZM10.1377 20.154H11.0917V34.117H10.1377V20.154ZM89.4897 89.729H69.5327C68.8597 77.25 60.9957 70.136 47.7127 70.136C47.5877 70.136 47.4707 70.16 47.3567 70.197C46.5447 70.358 45.9307 71.074 45.9317 71.935L45.9407 89.729H10.1377V36.479H12.2717C12.9237 36.479 13.4527 35.951 13.4527 35.298V18.974C13.4527 18.322 12.9247 17.793 12.2717 17.793H10.1377V10.377H13.3517V12.419C13.3517 13.071 13.8807 13.599 14.5327 13.599H44.9767C45.6287 13.599 46.1577 13.071 46.1577 12.419V10.377H89.4897V89.729Z" fill="#F0811F"/>
<path d="M58.4178 27.1709H47.6478C46.9968 27.1709 46.4668 26.6419 46.4668 25.9899V15.2199C46.4668 14.5679 46.9958 14.0389 47.6478 14.0389H58.4178C59.0698 14.0389 59.5998 14.5679 59.5998 15.2199V25.9899C59.5998 26.6419 59.0698 27.1709 58.4178 27.1709ZM48.8288 24.8089H57.2378V16.4019H48.8288V24.8089Z" fill="#F0811F"/>
<path d="M53.0354 23.949C51.1684 23.949 49.6484 22.43 49.6484 20.563C49.6484 18.696 51.1684 17.178 53.0354 17.178C54.9014 17.178 56.4204 18.697 56.4204 20.563C56.4204 22.429 54.9014 23.949 53.0354 23.949ZM53.0354 19.54C52.4704 19.54 52.0114 19.998 52.0114 20.563C52.0114 21.127 52.4704 21.587 53.0354 21.587C53.5994 21.587 54.0574 21.127 54.0574 20.563C54.0584 19.999 53.6004 19.54 53.0354 19.54Z" fill="#F0811F"/>
<path d="M38.1441 68.682V43.969C38.1441 43.317 37.6161 42.788 36.9631 42.788H12.6671C12.0141 42.788 11.4861 43.317 11.4861 43.969V68.597C11.1671 68.808 10.9551 69.169 10.9551 69.58V76.831C10.9551 77.242 11.1661 77.604 11.4861 77.815V87.346C11.4861 87.998 12.0141 88.527 12.6671 88.527H36.9631C37.6151 88.527 38.1441 87.999 38.1441 87.346V77.73C38.4011 77.513 38.5681 77.193 38.5681 76.831V69.58C38.5681 69.218 38.4011 68.897 38.1441 68.682ZM18.1731 78.012H30.6941V82.132C30.6941 82.603 30.3111 82.986 29.8401 82.986H19.0271C18.5561 82.986 18.1731 82.602 18.1731 82.132V78.012ZM13.3171 75.65V70.761H36.2061V75.65H13.3171ZM35.7821 45.15V68.4H13.8481V45.15H35.7821ZM13.8481 86.165V78.012H15.8111V82.132C15.8111 83.905 17.2531 85.348 19.0271 85.348H29.8401C31.6131 85.348 33.0561 83.906 33.0561 82.132V78.012H35.7821V86.165H13.8481Z" fill="#F0811F"/>
<path d="M61.3713 31.537V56.249C61.3713 56.901 61.8993 57.43 62.5523 57.43H86.8493C87.5013 57.43 88.0303 56.902 88.0303 56.249V31.622C88.3493 31.412 88.5603 31.049 88.5603 30.638V23.388C88.5603 22.976 88.3493 22.615 88.0303 22.404V12.873C88.0303 12.221 87.5023 11.692 86.8493 11.692H62.5523C61.9003 11.692 61.3713 12.221 61.3713 12.873V22.489C61.1133 22.706 60.9473 23.026 60.9473 23.388V30.638C60.9473 31 61.1133 31.32 61.3713 31.537ZM81.3423 22.206H68.8213V18.086C68.8213 17.615 69.2043 17.232 69.6753 17.232H80.4873C80.9593 17.232 81.3413 17.615 81.3413 18.086V22.206H81.3423ZM86.1983 24.567V29.456H63.3083V24.567H86.1983ZM63.7323 55.068V31.818H85.6673V55.068H63.7323ZM85.6673 14.052V22.206H83.7033V18.086C83.7033 16.313 82.2623 14.87 80.4873 14.87H69.6763C67.9023 14.87 66.4593 16.313 66.4593 18.086V22.206H63.7323V14.052H85.6673Z" fill="#F0811F"/>
</svg>
