<svg width="100" height="100" viewBox="0 0 100 100" fill="none" xmlns="http://www.w3.org/2000/svg">
<g clip-path="url(#clip0)">
<path d="M88.6988 50C88.6988 48.6723 88.63 47.336 88.4938 46.0095L100 37.0499L86.2151 13.1737L72.7021 18.6589C70.5365 17.0871 68.2221 15.7478 65.7899 14.6594L63.7849 0.223633H36.2153L34.2103 14.6594C31.7779 15.7476 29.4635 17.0869 27.2978 18.6589L13.7849 13.1737L0 37.0499L11.5062 46.0095C11.233 48.6668 11.233 51.3332 11.5062 53.9906L0 62.9501L13.7849 86.8263L27.2978 81.3411C29.4635 82.913 31.7779 84.2523 34.2103 85.3407L36.2153 99.7764H63.7849L65.7899 85.3407C68.2221 84.2523 70.5367 82.9132 72.7021 81.3411L86.2151 86.8263L100 62.9501L88.4938 53.9906C88.63 52.6641 88.6988 51.3279 88.6988 50ZM92.3491 64.4438L83.6831 79.4536L71.7697 74.6178C68.8408 77.0688 65.5839 79.1778 62.03 80.5455L60.4327 81.1753L58.6658 93.8973H41.334L39.5669 81.1753L37.9696 80.5457C34.4163 79.1782 31.1581 77.0684 28.2299 74.6178L16.3165 79.4536L7.65048 64.4438L17.7888 56.5494C17.4484 54.4121 17.1589 52.1604 17.1799 50C17.1587 47.8414 17.4486 45.5852 17.7888 43.4507L7.65048 35.5563L16.3165 20.5465L28.2299 25.3823C31.1588 22.9313 34.4157 20.8222 37.9696 19.4546L39.5669 18.8247L41.334 6.10274H58.6658L60.4327 18.8247L62.03 19.4544C65.5833 20.8219 68.8415 22.9317 71.7697 25.3823L83.6831 20.5465L92.3491 35.5563L82.2108 43.4507C82.5512 45.588 82.8407 47.8397 82.8197 50C82.8409 52.1586 82.551 54.4148 82.2108 56.5494L92.3491 64.4438Z" fill="#F0811F"/>
<path d="M49.9996 22.7607C34.9795 22.7607 22.7598 34.9805 22.7598 50.0006C24.256 86.1379 75.7487 86.1275 77.2394 50.0004C77.2394 34.9805 65.0197 22.7607 49.9996 22.7607ZM46.5887 71.0877V59.9915L42.5565 55.9187C41.1112 54.4587 40.7383 52.2341 41.6287 50.3827L44.7206 43.9545L47.0467 48.0234H53.2292L55.38 44.1362L58.3742 50.3859C59.26 52.2346 58.8865 54.456 57.4449 55.9134L53.4107 59.9925V71.0877C51.1993 71.4511 48.8003 71.4511 46.5887 71.0877ZM59.2898 69.2331V62.4088L61.6249 60.0478C64.8071 56.8305 65.6314 51.927 63.6764 47.8459L58.7938 37.6547H52.2472L50.1046 41.527L47.8908 37.6547H41.227L36.3307 47.8347C34.3651 51.9215 35.188 56.8327 38.3786 60.0552L40.7096 62.4098V69.2333C20.5739 59.2729 27.224 28.9571 49.9998 28.64C72.7782 28.9583 79.4231 59.2766 59.2898 69.2331Z" fill="#F0811F"/>
</g>
<defs>
<clipPath id="clip0">
<rect width="100" height="100" fill="white"/>
</clipPath>
</defs>
</svg>
