<svg width="100" height="100" viewBox="0 0 100 100" fill="none" xmlns="http://www.w3.org/2000/svg">
<path d="M96.875 0H3.125C1.4 0 0 1.4 0 3.125V96.875C0 98.6 1.4 100 3.125 100H96.875C98.6 100 100 98.6 100 96.875V3.125C100 1.4 98.6 0 96.875 0ZM93.75 93.75H6.25V6.25H93.75V93.75Z" fill="#F0811F"/>
<path d="M84.375 12.5H15.625C13.9 12.5 12.5 13.9 12.5 15.625V84.375C12.5 86.1 13.9 87.5 15.625 87.5H84.375C86.1 87.5 87.5 86.1 87.5 84.375V15.625C87.5 13.9 86.1 12.5 84.375 12.5ZM46.875 81.25H18.75V53.125H46.875V81.25ZM46.875 46.875H18.75V18.75H46.875V46.875ZM81.25 81.25H53.125V53.125H81.25V81.25ZM81.25 46.875H53.125V18.75H81.25V46.875Z" fill="#F0811F"/>
</svg>
