<svg width="100" height="100" viewBox="0 0 100 100" fill="none" xmlns="http://www.w3.org/2000/svg">
<path d="M94.9992 90C94.7109 90 94.4242 90.0249 94.1426 90.0749C92.9926 88.0033 90.8043 86.6665 88.3326 86.6665C85.8609 86.6665 83.6726 88.0033 82.5227 90.0749C82.241 90.0249 81.9543 90 81.666 90C78.9094 90 76.666 92.2433 76.666 94.9999C76.666 95.5867 76.7859 96.1416 76.9744 96.6665H69.9992V86.6665H78.3326C79.2525 86.6665 79.9992 85.9199 79.9992 85V18.3333C79.9992 17.4134 79.2525 16.6667 78.3326 16.6667H28.3326C27.4127 16.6667 26.666 17.4134 26.666 18.3333V98.3334C26.666 99.2533 27.4127 100 28.3326 100H94.9992C97.7559 100 99.9992 97.7566 99.9992 94.9999C99.9992 92.2433 97.7559 90 94.9992 90ZM69.9992 20H76.6658V30H69.9992V20ZM69.9992 33.3334H76.6658V43.3334H69.9992V33.3334ZM69.9992 46.6666H76.6658V56.6666H69.9992V46.6666ZM69.9992 60H76.6658V69.9999H69.9992V60ZM69.9992 73.3333H76.6658V83.3334H69.9992V73.3333ZM36.6658 96.6665H29.9992V86.6665H36.6658V96.6665ZM36.6658 83.3334H29.9992V73.3333H36.6658V83.3334ZM36.6658 69.9999H29.9992V60H36.6658V69.9999ZM36.6658 56.6666H29.9992V46.6666H36.6658V56.6666ZM36.6658 43.3334H29.9992V33.3334H36.6658V43.3334ZM36.6658 30H29.9992V20H36.6658V30ZM46.6658 96.6665H39.9992V86.6665H46.6658V96.6665ZM46.6658 83.3334H39.9992V73.3333H46.6658V83.3334ZM46.6658 69.9999H39.9992V60H46.6658V69.9999ZM46.6658 56.6666H39.9992V46.6666H46.6658V56.6666ZM46.6658 43.3334H39.9992V33.3334H46.6658V43.3334ZM46.6658 30H39.9992V20H46.6658V30ZM56.6658 96.6665H49.9992V86.6665H56.6658V96.6665ZM56.6658 83.3334H49.9992V73.3333H56.6658V83.3334ZM56.6658 69.9999H49.9992V60H56.6658V69.9999ZM56.6658 56.6666H49.9992V46.6666H56.6658V56.6666ZM56.6658 43.3334H49.9992V33.3334H56.6658V43.3334ZM56.6658 30H49.9992V20H56.6658V30ZM66.6658 96.6665H59.9992V86.6665H66.6658V96.6665ZM66.6658 83.3334H59.9992V73.3333H66.6658V83.3334ZM66.6658 69.9999H59.9992V60H66.6658V69.9999ZM66.6658 56.6666H59.9992V46.6666H66.6658V56.6666ZM66.6658 43.3334H59.9992V33.3334H66.6658V43.3334ZM66.6658 30H59.9992V20H66.6658V30ZM94.9992 96.6665H81.6658C80.7475 96.6665 79.9992 95.9183 79.9992 94.9999C79.9992 94.0816 80.7475 93.3334 81.6658 93.3334C81.9857 93.3334 82.2891 93.4249 82.5691 93.605C83.0258 93.8984 83.5959 93.9517 84.0992 93.7484C84.6025 93.5451 84.9742 93.1084 85.0959 92.58C85.4477 91.0617 86.7793 90 88.3326 90C89.8859 90 91.2176 91.0617 91.5693 92.58C91.691 93.1084 92.0627 93.5451 92.566 93.7484C93.0693 93.9517 93.6393 93.8984 94.0961 93.605C95.1795 92.905 96.6678 93.7617 96.666 94.9999C96.6658 95.9183 95.9176 96.6665 94.9992 96.6665Z" fill="#F0811F"/>
<path d="M36.6666 11.6666V6.6666H48.3332C49.2531 6.6666 49.9998 5.91992 49.9998 5V3.3334H56.6664V5C56.6664 5.91992 57.4131 6.6666 58.333 6.6666H70V10H41.6666C40.7467 10 40 10.7467 40 11.6666C40 12.5865 40.7467 13.3332 41.6666 13.3332H83.3332V82.4648C83.3332 83.3848 84.0799 84.1314 84.9998 84.1314C85.9197 84.1314 86.6664 83.3848 86.6664 82.4648V11.6666C86.6664 10.7467 85.9197 10 84.9998 10H73.3332V5C73.3332 4.08008 72.5865 3.3334 71.6666 3.3334H60V1.6666C60 0.74668 59.2533 0 58.3334 0H48.3334C47.4135 0 46.6668 0.74668 46.6668 1.6666V3.3332H35C34.0801 3.3332 33.3334 4.07988 33.3334 4.9998V9.9998H21.6668C20.7469 9.9998 20.0002 10.7465 20.0002 11.6664V96.6664H10V89.8315C13.7982 89.0564 16.6666 85.6914 16.6666 81.6664C16.6666 81.4498 16.5717 59.9998 8.3332 59.9998C0.0949219 60 0 81.45 0 81.6666C0 85.6916 2.86836 89.0566 6.6666 89.8316V96.6666H1.6666C0.74668 96.6666 0 97.4133 0 98.3332C0 99.2531 0.74668 100 1.6666 100H21.6666C22.5865 100 23.3332 99.2533 23.3332 98.3334V13.3334H35C35.9199 13.3334 36.6666 12.5867 36.6666 11.6666ZM3.3334 81.6666C3.3334 73.3633 5.56348 63.3332 8.3334 63.3332C11.1033 63.3332 13.3334 73.3633 13.3334 81.6666C13.3334 84.4232 11.09 86.6666 8.3334 86.6666C5.57676 86.6666 3.3334 84.4232 3.3334 81.6666Z" fill="#F0811F"/>
</svg>
