<svg width="40" height="40" viewBox="0 0 40 40" fill="none" xmlns="http://www.w3.org/2000/svg">
<circle r="20" transform="matrix(4.37114e-08 -1 -1 -4.37114e-08 20 20)" fill="#F1F2F0"/>
<path d="M21.0853 15.3331L27.7604 22.0083C27.9149 22.1627 28 22.3688 28 22.5886C28 22.8083 27.9149 23.0144 27.7604 23.1688L27.2689 23.6604C26.9487 23.9803 26.4282 23.9803 26.1084 23.6604L20.5031 18.0551L14.8916 23.6666C14.7371 23.821 14.5311 23.9063 14.3115 23.9063C14.0916 23.9063 13.8856 23.821 13.731 23.6666L13.2396 23.175C13.0851 23.0205 13 22.8146 13 22.5948C13 22.375 13.0851 22.1689 13.2396 22.0146L19.9208 15.3331C20.0758 15.1784 20.2827 15.0934 20.5027 15.0939C20.7236 15.0934 20.9304 15.1784 21.0853 15.3331Z" fill="#35393F"/>
</svg>
