<svg width="24" height="24" viewBox="0 0 24 24" fill="none" xmlns="http://www.w3.org/2000/svg">
<path d="M19.2598 9.99706C19.2847 7.17719 16.881 4.59334 13.9058 4.23309C13.8437 4.22688 13.7816 4.21446 13.7133 4.20203C13.5642 4.17719 13.4151 4.15234 13.2599 4.15234C12.6512 4.15234 12.4897 4.58092 12.4462 4.83557C12.4027 5.08402 12.4462 5.2952 12.5642 5.45669C12.7692 5.72998 13.1232 5.77967 13.4089 5.81694C13.4897 5.82936 13.5704 5.84178 13.6387 5.85421C16.3095 6.45048 17.2102 7.38837 17.6512 10.0405C17.6636 10.1027 17.6698 10.1834 17.6698 10.2704C17.6884 10.5871 17.7319 11.2455 18.44 11.2455C18.4959 11.2455 18.5642 11.2393 18.6263 11.2331C19.2847 11.1337 19.2661 10.5312 19.2536 10.2393C19.2536 10.1586 19.2474 10.0778 19.2536 10.0281C19.2598 10.0219 19.2598 10.0095 19.2598 9.99706Z" fill="#7940B5"/>
<path d="M13.0918 3.2021C13.1725 3.20831 13.247 3.21452 13.3092 3.22073C17.6942 3.89775 19.7129 5.9785 20.2781 10.4009C20.2905 10.4754 20.2905 10.5686 20.2905 10.6679C20.2967 11.0158 20.3092 11.7301 21.0793 11.7487H21.1042C21.3464 11.7487 21.539 11.6742 21.6756 11.5313C21.9179 11.2829 21.8992 10.904 21.8868 10.6058C21.8806 10.5313 21.8806 10.463 21.8806 10.4009C21.9365 5.87291 18.0172 1.77352 13.4955 1.61824C13.4769 1.61824 13.4582 1.61824 13.4396 1.61824C13.4334 1.61824 13.4147 1.61824 13.3837 1.61824C13.3402 1.61824 13.2843 1.61203 13.2222 1.61203C13.1539 1.60582 13.0731 1.59961 12.9862 1.59961C12.2657 1.59961 12.129 2.10893 12.1104 2.41949C12.0793 3.12756 12.7626 3.17725 13.0918 3.2021Z" fill="#7940B5"/>
<path d="M20.0609 16.121C19.9678 16.0527 19.8684 15.9781 19.7814 15.9036C19.3032 15.5185 18.7939 15.1645 18.297 14.8166C18.1976 14.7483 18.092 14.6738 17.9926 14.6055C17.3591 14.1645 16.7939 13.9471 16.2535 13.9471C15.533 13.9471 14.8994 14.3446 14.3777 15.1334C14.1479 15.4812 13.8684 15.6551 13.5206 15.6551C13.3156 15.6551 13.0858 15.5992 12.8311 15.4812C10.7939 14.5558 9.33423 13.1396 8.50193 11.2638C8.0982 10.357 8.22864 9.76695 8.93671 9.28868C9.34044 9.01539 10.0858 8.50608 10.0361 7.53092C9.97398 6.42533 7.5392 3.10235 6.50814 2.72347C6.07336 2.56198 5.61373 2.56198 5.14789 2.71726C3.96777 3.11477 3.11684 3.81042 2.69448 4.73589C2.28454 5.62409 2.30317 6.67378 2.75038 7.76074C4.02988 10.9098 5.83733 13.6489 8.10441 15.916C10.328 18.1334 13.0609 19.9471 16.2286 21.3135C16.5144 21.4378 16.8125 21.5061 17.0299 21.5496C17.1044 21.5682 17.1665 21.5806 17.2162 21.593C17.2411 21.5992 17.2659 21.6055 17.297 21.6055H17.3218C18.8125 21.6055 20.6013 20.2452 21.1479 18.6924C21.651 17.3322 20.769 16.6614 20.0609 16.121Z" fill="#7940B5"/>
<path d="M13.7495 6.79855C13.4949 6.80476 12.9607 6.81719 12.7744 7.35756C12.6874 7.61222 12.6999 7.82961 12.8054 8.00973C12.9607 8.27681 13.2651 8.35756 13.5446 8.40104C14.5446 8.56253 15.0601 9.11532 15.1595 10.1402C15.2092 10.6184 15.5322 10.9538 15.9421 10.9538C15.9732 10.9538 16.0042 10.9538 16.0353 10.9476C16.5322 10.8855 16.7744 10.5253 16.7495 9.86066C16.7558 9.17122 16.3955 8.38861 15.7806 7.76128C15.1657 7.13396 14.4266 6.77992 13.7495 6.79855Z" fill="#7940B5"/>
</svg>
