<svg width="32" height="32" viewBox="0 0 32 32" fill="none" xmlns="http://www.w3.org/2000/svg">
<circle cx="16" cy="16" r="16" fill="#4A7BD6"/>
<g clip-path="url(#clip0)">
<path d="M23.3396 19.536C23.3014 19.472 23.0649 18.9582 21.927 17.9021C20.7358 16.7963 20.8959 16.9759 22.3306 15.0637C23.2045 13.8992 23.5538 13.188 23.4445 12.884C23.3405 12.5942 22.6978 12.6706 22.6978 12.6706L20.5607 12.6831C20.5607 12.6831 20.4025 12.6618 20.2843 12.732C20.1696 12.8013 20.0958 12.9613 20.0958 12.9613C20.0958 12.9613 19.7571 13.8627 19.3055 14.629C18.3535 16.246 17.9721 16.3314 17.8165 16.2309C17.4547 15.9971 17.5454 15.2904 17.5454 14.789C17.5454 13.2218 17.7827 12.5684 17.0822 12.3995C16.8493 12.3435 16.6787 12.3062 16.084 12.2999C15.3212 12.2919 14.675 12.3026 14.3096 12.4813C14.066 12.6004 13.8785 12.8662 13.9931 12.8813C14.1345 12.9 14.4545 12.9676 14.6243 13.1987C14.8439 13.4965 14.8359 14.1668 14.8359 14.1668C14.8359 14.1668 14.9621 16.0113 14.5416 16.2407C14.2527 16.398 13.8571 16.0771 13.0082 14.6095C12.5735 13.8583 12.2446 13.0271 12.2446 13.0271C12.2446 13.0271 12.1814 12.8724 12.0685 12.7898C11.9316 12.6893 11.7396 12.6573 11.7396 12.6573L9.70748 12.6698C9.70748 12.6698 9.40257 12.6786 9.29056 12.8111C9.191 12.9293 9.28256 13.1729 9.28256 13.1729C9.28256 13.1729 10.8738 16.895 12.6748 18.7715C14.3274 20.4917 16.2031 20.3788 16.2031 20.3788H17.0529C17.0529 20.3788 17.3098 20.3503 17.4405 20.209C17.5614 20.0792 17.5569 19.8356 17.5569 19.8356C17.5569 19.8356 17.5401 18.6951 18.0699 18.5271C18.5917 18.3617 19.262 19.6294 19.9722 20.1174C20.5092 20.4863 20.9172 20.4054 20.9172 20.4054L22.8169 20.3788C22.8169 20.3788 23.8107 20.3174 23.3396 19.536Z" fill="white"/>
</g>
<defs>
<clipPath id="clip0">
<rect width="14.2222" height="14.2222" fill="white" transform="translate(9.24414 9.24438)"/>
</clipPath>
</defs>
</svg>
