<svg width="24" height="24" viewBox="0 0 24 24" fill="none" xmlns="http://www.w3.org/2000/svg">
<path d="M17.5832 13.2136C17.5408 13.1924 15.9645 12.4176 15.6886 12.3167C15.5718 12.2743 15.4498 12.2371 15.3224 12.2371C15.1101 12.2371 14.9297 12.3433 14.7917 12.5502C14.6325 12.7838 14.1601 13.341 14.0115 13.5055C13.9903 13.5268 13.9638 13.5533 13.9478 13.5533C13.9319 13.5533 13.6878 13.4525 13.6188 13.4206C11.9311 12.6882 10.6468 10.921 10.4717 10.6238C10.4451 10.5813 10.4451 10.5601 10.4451 10.5601C10.4504 10.5388 10.5088 10.4805 10.5354 10.4486C10.6203 10.3637 10.7158 10.2523 10.806 10.1461C10.8485 10.093 10.8909 10.0453 10.9334 9.99752C11.0661 9.84361 11.1245 9.72685 11.1881 9.58887L11.2253 9.51988C11.3898 9.19083 11.2518 8.92017 11.2041 8.82995C11.1669 8.75565 10.5035 7.1529 10.4292 6.98307C10.2594 6.57442 10.0365 6.38867 9.72337 6.38867C9.69684 6.38867 9.72337 6.38867 9.60131 6.39398C9.45271 6.39929 8.64603 6.50543 8.29045 6.72833C7.91365 6.96715 7.27148 7.72607 7.27148 9.05816C7.27148 10.2576 8.03571 11.3933 8.35944 11.8232C8.37006 11.8338 8.38067 11.855 8.4019 11.8869C9.65438 13.7178 11.22 15.0764 12.8015 15.708C14.3246 16.3183 15.0464 16.3873 15.4604 16.3873C15.6355 16.3873 15.7735 16.3714 15.8902 16.3608L15.9699 16.3555C16.4953 16.3077 17.6522 15.708 17.9176 14.9756C18.1245 14.3971 18.1776 13.7709 18.0396 13.5427C17.9494 13.3888 17.7849 13.3092 17.5832 13.2136Z" fill="#40A86F"/>
<path d="M12.5891 0.799805C6.74062 0.799805 1.98013 5.52315 1.98013 11.3291C1.98013 13.2079 2.48431 15.0441 3.43428 16.6522L1.61394 22.0283C1.5821 22.1291 1.60332 22.2406 1.67762 22.3149C1.7307 22.368 1.80499 22.3998 1.87929 22.3998C1.90583 22.3998 1.93767 22.3945 1.96421 22.3892L7.56853 20.606C9.10228 21.4233 10.8377 21.8585 12.5891 21.8585C18.4375 21.8585 23.198 17.1351 23.198 11.3291C23.198 5.52315 18.4375 0.799805 12.5891 0.799805ZM12.5891 19.6666C10.9385 19.6666 9.3411 19.189 7.96656 18.2868C7.9188 18.2549 7.86573 18.239 7.81265 18.239C7.78612 18.239 7.75428 18.2443 7.72774 18.2496L4.92027 19.1412L5.82779 16.4664C5.85963 16.3815 5.84371 16.286 5.79064 16.2117C4.74514 14.7841 4.1932 13.0911 4.1932 11.3238C4.1932 6.72786 7.96125 2.98634 12.5944 2.98634C17.2275 2.98634 20.9955 6.72786 20.9955 11.3238C20.9902 15.9251 17.2222 19.6666 12.5891 19.6666Z" fill="#40A86F"/>
</svg>
