<svg width="24" height="24" viewBox="0 0 24 24" fill="none" xmlns="http://www.w3.org/2000/svg">
<path d="M21.8906 0H2.10938C0.946266 0 0 0.946266 0 2.10938V21.8906C0 23.0537 0.946266 24 2.10938 24H21.8906C23.0537 24 24 23.0537 24 21.8906V2.10938C24 0.946266 23.0537 0 21.8906 0ZM22.5938 2.10938V11.2969H12.7031V1.40625H21.8906C22.2783 1.40625 22.5938 1.72167 22.5938 2.10938ZM2.10938 1.40625H11.2969V11.2969H1.40625V2.10938C1.40625 1.72167 1.72167 1.40625 2.10938 1.40625ZM1.40625 21.8906V12.7031H11.2969V22.5938H2.10938C1.72167 22.5938 1.40625 22.2783 1.40625 21.8906ZM21.8906 22.5938H12.7031V12.7031H22.5938V21.8906C22.5938 22.2783 22.2783 22.5938 21.8906 22.5938Z" fill="#F0811F"/>
<path d="M4.26562 7.07812H5.67188V8.48438C5.67188 8.87269 5.98669 9.1875 6.375 9.1875C6.76331 9.1875 7.07812 8.87269 7.07812 8.48438V7.07812H8.48438C8.87269 7.07812 9.1875 6.76331 9.1875 6.375C9.1875 5.98669 8.87269 5.67188 8.48438 5.67188H7.07812V4.26562C7.07812 3.87731 6.76331 3.5625 6.375 3.5625C5.98669 3.5625 5.67188 3.87731 5.67188 4.26562V5.67188H4.26562C3.87731 5.67188 3.5625 5.98669 3.5625 6.375C3.5625 6.76331 3.87731 7.07812 4.26562 7.07812Z" fill="#F0811F"/>
<path d="M7.36871 17.6253L8.36306 16.6309C8.63766 16.3563 8.63766 15.9112 8.36306 15.6366C8.08852 15.362 7.6433 15.362 7.36871 15.6366L6.37435 16.6309L5.37999 15.6366C5.10544 15.362 4.66023 15.362 4.38563 15.6366C4.11104 15.9112 4.11104 16.3563 4.38563 16.6309L5.37999 17.6253L4.38563 18.6196C4.11104 18.8942 4.11104 19.3394 4.38563 19.614C4.66023 19.8886 5.1054 19.8886 5.37999 19.614L6.37435 18.6196L7.36871 19.614C7.6433 19.8886 8.08847 19.8886 8.36306 19.614C8.63766 19.3394 8.63766 18.8942 8.36306 18.6196L7.36871 17.6253Z" fill="#F0811F"/>
<path d="M19.7344 15.5156H15.5156C15.1273 15.5156 14.8125 15.8304 14.8125 16.2188C14.8125 16.6071 15.1273 16.9219 15.5156 16.9219H19.7344C20.1227 16.9219 20.4375 16.6071 20.4375 16.2188C20.4375 15.8304 20.1227 15.5156 19.7344 15.5156Z" fill="#F0811F"/>
<path d="M19.7344 18.3281H15.5156C15.1273 18.3281 14.8125 18.6429 14.8125 19.0312C14.8125 19.4196 15.1273 19.7344 15.5156 19.7344H19.7344C20.1227 19.7344 20.4375 19.4196 20.4375 19.0312C20.4375 18.6429 20.1227 18.3281 19.7344 18.3281Z" fill="#F0811F"/>
<path d="M15.5156 7.07812H19.7344C20.1227 7.07812 20.4375 6.76331 20.4375 6.375C20.4375 5.98669 20.1227 5.67188 19.7344 5.67188H15.5156C15.1273 5.67188 14.8125 5.98669 14.8125 6.375C14.8125 6.76331 15.1273 7.07812 15.5156 7.07812Z" fill="#F0811F"/>
</svg>
