<svg width="15" height="15" viewBox="0 0 15 15" fill="none" xmlns="http://www.w3.org/2000/svg">
<path d="M8.0853 11.667L14.7604 4.99178C14.9149 4.83739 15 4.6313 15 4.41154C15 4.19179 14.9149 3.98569 14.7604 3.83131L14.2689 3.33972C13.9487 3.01985 13.4282 3.01985 13.1084 3.33972L7.50311 8.94504L1.89157 3.3335C1.73706 3.17911 1.53108 3.09387 1.31145 3.09387C1.09158 3.09387 0.885602 3.17911 0.730968 3.3335L0.239632 3.82509C0.0851202 3.9796 -4.77197e-08 4.18557 -5.73254e-08 4.40532C-6.69312e-08 4.62508 0.0851201 4.83117 0.239632 4.98556L6.9208 11.667C7.0758 11.8217 7.28274 11.9067 7.50274 11.9062C7.7236 11.9067 7.93042 11.8217 8.0853 11.667Z" fill="white"/>
</svg>
