<svg width="15" height="15" viewBox="0 0 15 15" fill="none" xmlns="http://www.w3.org/2000/svg">
<path d="M3.33315 6.9147L10.0083 0.239632C10.1627 0.0851213 10.3688 0 10.5886 0C10.8083 0 11.0144 0.0851213 11.1688 0.239632L11.6604 0.731092C11.9803 1.05133 11.9803 1.57182 11.6604 1.89157L6.05508 7.49689L11.6666 13.1084C11.821 13.2629 11.9062 13.4689 11.9062 13.6885C11.9062 13.9084 11.821 14.1144 11.6666 14.269L11.175 14.7604C11.0205 14.9149 10.8146 15 10.5948 15C10.375 15 10.1689 14.9149 10.0146 14.7604L3.33315 8.0792C3.17839 7.9242 3.09339 7.71725 3.09388 7.49726C3.09339 7.2764 3.17839 7.06958 3.33315 6.9147Z" fill="white"/>
</svg>
